<svg width="566" height="566" viewBox="0 0 566 566" fill="none" xmlns="http://www.w3.org/2000/svg">
<path d="M566 432.877H0V433.16H566V432.877Z" fill="#EBEBEB"/>
<path d="M509.287 451.091H484.745V451.374H509.287V451.091Z" fill="#EBEBEB"/>
<path d="M390.166 445.227H351.554V445.51H390.166V445.227Z" fill="#EBEBEB"/>
<path d="M499.348 440.586H448.94V440.869H499.348V440.586Z" fill="#EBEBEB"/>
<path d="M195.859 446.291H183.248V446.574H195.859V446.291Z" fill="#EBEBEB"/>
<path d="M173.162 446.291H129.705V446.574H173.162V446.291Z" fill="#EBEBEB"/>
<path d="M106.419 441.514H75.0629V441.797H106.419V441.514Z" fill="#EBEBEB"/>
<path d="M244.591 227.396L245.101 212.522L235.977 209.533C235.584 204.492 234.767 199.494 233.532 194.591L241.274 188.931L236.022 174.962L226.445 175.732C224.175 171.231 221.524 166.933 218.521 162.883L223.479 154.609L213.291 143.73L204.734 148.111C200.885 144.821 196.774 141.853 192.44 139.236L193.821 129.727L180.237 123.569L174.011 130.859C169.208 129.323 164.286 128.187 159.295 127.463L157.031 118.147L142.111 117.637L139.168 126.773C134.132 127.169 129.138 127.983 124.237 129.206L118.486 121.509L104.518 126.727L105.287 136.304C100.789 138.609 96.4914 141.286 92.4391 144.307L84.1076 139.236L73.1838 149.424L77.5646 158.027C74.2743 161.856 71.3202 165.962 68.735 170.298L59.2376 168.872L53.0342 182.456L60.3696 188.67C58.8222 193.471 57.6861 198.394 56.9736 203.386L47.544 205.752L47.0346 220.627L56.2038 223.615C56.5831 228.653 57.3974 233.649 58.6376 238.546L50.8947 244.206L56.1585 258.187L65.7352 257.417C68.0001 261.921 70.6513 266.219 73.6592 270.265L68.6898 278.54L78.8778 289.418L87.4357 285.038C91.2738 288.326 95.3782 291.291 99.7066 293.901L98.2802 303.399L111.864 309.568L118.124 302.278C122.927 303.828 127.849 304.983 132.84 305.731L135.104 315.047L150.024 315.556L152.967 306.421C158.006 306.021 163.004 305.207 167.91 303.987L173.57 311.685L187.538 306.466L186.814 296.89C191.304 294.57 195.6 291.894 199.662 288.886L207.892 293.845L218.816 283.657L214.435 275.053C217.726 271.225 220.68 267.12 223.264 262.783L232.762 264.209L238.965 250.625L231.63 244.399C233.203 239.602 234.358 234.679 235.082 229.683L244.591 227.396ZM144.081 275.585C132.408 275.191 121.114 271.344 111.627 264.529C102.141 257.715 94.889 248.241 90.7882 237.304C86.6875 226.368 85.9223 214.461 88.5896 203.09C91.257 191.719 97.2369 181.394 105.773 173.422C114.309 165.45 125.018 160.188 136.545 158.303C148.071 156.418 159.898 157.994 170.529 162.831C181.16 167.669 190.118 175.55 196.269 185.48C202.42 195.409 205.488 206.939 205.084 218.612C204.547 234.256 197.819 249.046 186.379 259.73C174.939 270.414 159.725 276.117 144.081 275.585Z" fill="#EBEBEB"/>
<path d="M499.212 178.199L502.959 174.702L501.476 171.747C502.607 170.423 503.626 169.007 504.521 167.513L507.804 168L509.921 163.314L507.408 161.174C507.949 159.517 508.347 157.817 508.596 156.092L511.822 155.288L511.981 150.149L508.834 149.13C508.696 147.389 508.416 145.663 507.996 143.968L510.656 141.987L508.845 137.176L505.551 137.436C504.757 135.885 503.837 134.4 502.8 132.999L504.51 130.169L500.989 126.41L498.046 127.916C496.72 126.787 495.304 125.769 493.812 124.871L494.288 121.588L489.613 119.449L487.462 121.973C485.802 121.456 484.102 121.077 482.379 120.841L481.575 117.626L476.436 117.434L475.406 120.603C473.672 120.736 471.953 121.016 470.267 121.441L468.297 118.781L463.475 120.581L463.746 123.886C462.19 124.673 460.706 125.593 459.309 126.637L456.456 124.928L452.698 128.425L454.158 131.312C453.019 132.632 451.996 134.049 451.102 135.546L447.83 135.059L445.702 139.745L448.227 141.896C447.703 143.551 447.325 145.248 447.095 146.968L443.857 147.771L443.699 152.911L446.857 153.929C446.986 155.67 447.262 157.397 447.683 159.091L445.012 161.061L446.823 165.872L450.128 165.623C450.923 167.175 451.843 168.659 452.879 170.06L451.17 172.89L454.69 176.649L457.634 175.143C458.957 176.275 460.373 177.294 461.867 178.188L461.381 181.46L466.067 183.599L468.218 181.086C469.879 181.598 471.579 181.976 473.3 182.218L474.104 185.433L479.243 185.625L480.274 182.456C482.008 182.324 483.727 182.044 485.413 181.618L487.383 184.278L492.205 182.478L491.945 179.173C493.496 178.385 494.977 177.465 496.371 176.422L499.212 178.199ZM472.474 156.544C471.486 155.485 470.833 154.156 470.6 152.726C470.367 151.297 470.563 149.83 471.164 148.511C471.764 147.193 472.742 146.082 473.974 145.319C475.206 144.557 476.637 144.177 478.085 144.228C479.533 144.278 480.933 144.757 482.109 145.604C483.285 146.451 484.183 147.627 484.69 148.985C485.197 150.342 485.29 151.819 484.957 153.229C484.624 154.639 483.881 155.919 482.821 156.907C482.117 157.57 481.289 158.087 480.384 158.428C479.479 158.77 478.516 158.928 477.549 158.894C476.583 158.861 475.633 158.636 474.754 158.232C473.875 157.829 473.085 157.255 472.429 156.544H472.474Z" fill="#EBEBEB"/>
<path d="M362.24 330.929L350.535 322.835C349.388 318.62 347.81 314.535 345.826 310.643L348.826 298.871L331.846 280.691L319.892 282.875C316.142 280.629 312.17 278.774 308.04 277.34L300.772 265.103L275.868 264.254L267.786 275.959C263.576 277.106 259.495 278.68 255.606 280.657L243.833 277.657L225.653 294.637L227.838 306.568C225.593 310.326 223.742 314.305 222.313 318.443L210.077 325.71L209.228 350.614L220.944 358.697C222.072 362.934 223.647 367.04 225.642 370.945L222.608 382.616L239.588 400.796L251.462 398.622C255.241 400.872 259.239 402.73 263.394 404.169L270.65 416.383L295.554 417.244L303.625 405.539C307.873 404.392 311.992 402.814 315.919 400.83L327.623 403.818L345.815 386.838L343.63 374.907C345.881 371.149 347.733 367.165 349.154 363.021L361.391 355.754L362.24 330.929ZM284.755 368.726C279.226 368.537 273.877 366.713 269.385 363.485C264.893 360.256 261.459 355.768 259.518 350.588C257.576 345.408 257.214 339.769 258.478 334.383C259.741 328.998 262.573 324.107 266.615 320.331C270.657 316.555 275.728 314.062 281.188 313.167C286.647 312.273 292.248 313.017 297.284 315.306C302.32 317.595 306.565 321.326 309.481 326.027C312.396 330.728 313.853 336.188 313.666 341.717C313.406 349.132 310.215 356.141 304.792 361.205C299.369 366.269 292.159 368.974 284.743 368.726H284.755Z" fill="#EBEBEB"/>
<path d="M388.899 260.36H388.819L369.213 259.692C368.816 259.685 368.427 259.577 368.083 259.379C367.738 259.181 367.45 258.9 367.243 258.56L361.957 249.674C359.108 248.632 356.351 247.352 353.716 245.848L345.26 247.308C344.866 247.38 344.46 247.352 344.08 247.225C343.7 247.098 343.358 246.878 343.087 246.584L329.695 232.252C329.414 231.956 329.214 231.591 329.115 231.195C329.016 230.798 329.021 230.383 329.129 229.988L331.269 221.6C329.943 218.882 328.86 216.053 328.031 213.144L319.507 207.258C319.176 207.031 318.909 206.724 318.729 206.366C318.548 206.008 318.462 205.61 318.477 205.209L319.145 185.603C319.158 185.207 319.268 184.82 319.466 184.477C319.663 184.134 319.941 183.844 320.277 183.633L329.186 178.347C330.213 175.504 331.49 172.758 333 170.14L331.438 161.616C331.365 161.22 331.393 160.812 331.52 160.43C331.647 160.048 331.868 159.705 332.163 159.431L346.494 146.051C346.79 145.769 347.154 145.567 347.55 145.466C347.947 145.365 348.363 145.368 348.758 145.473L357.18 147.624C359.891 146.298 362.713 145.211 365.613 144.375L371.5 135.851C371.719 135.513 372.024 135.239 372.384 135.058C372.744 134.877 373.146 134.795 373.549 134.821L393.144 135.5C393.542 135.509 393.932 135.617 394.278 135.815C394.624 136.012 394.915 136.293 395.125 136.632L400.411 145.53C403.24 146.569 405.975 147.849 408.584 149.356L417.142 147.783C417.536 147.709 417.942 147.738 418.322 147.864C418.702 147.991 419.044 148.212 419.315 148.507L432.707 162.838C432.986 163.136 433.185 163.501 433.284 163.897C433.383 164.293 433.379 164.708 433.273 165.102L431.122 173.513C432.448 176.226 433.539 179.047 434.382 181.946L442.895 187.833C443.226 188.06 443.493 188.367 443.673 188.725C443.854 189.083 443.94 189.481 443.925 189.882L443.257 209.477C443.244 209.874 443.134 210.262 442.936 210.607C442.739 210.952 442.461 211.244 442.125 211.458L433.216 216.744C432.182 219.58 430.906 222.322 429.402 224.94L430.964 233.475C431.037 233.869 431.009 234.275 430.882 234.655C430.755 235.035 430.534 235.377 430.239 235.648L415.818 249.04C415.521 249.321 415.156 249.521 414.76 249.62C414.363 249.719 413.948 249.714 413.554 249.606L405.177 247.467C402.447 248.787 399.611 249.873 396.698 250.715L390.868 259.228C390.658 259.564 390.369 259.843 390.025 260.041C389.682 260.238 389.295 260.348 388.899 260.36ZM370.685 254.96L387.665 255.538L393.325 247.399C393.638 246.924 394.119 246.584 394.672 246.448C397.857 245.577 400.948 244.39 403.898 242.905C404.412 242.657 404.996 242.597 405.55 242.735L413.474 244.761L425.926 233.158L424.5 224.974C424.39 224.402 424.495 223.809 424.794 223.31C426.476 220.507 427.86 217.536 428.926 214.446C429.106 213.886 429.484 213.411 429.99 213.11L438.514 208.062L439.092 191.082L430.941 185.422C430.512 185.128 430.19 184.703 430.024 184.21C430.024 184.154 430.024 184.086 430.024 184.018C429.152 180.889 427.969 177.855 426.492 174.962C426.23 174.444 426.166 173.848 426.311 173.287L428.349 165.272L416.746 152.82L408.607 154.314C408.038 154.417 407.452 154.313 406.954 154.02C404.146 152.335 401.172 150.943 398.079 149.866C397.902 149.809 397.731 149.733 397.57 149.639C397.244 149.436 396.972 149.156 396.777 148.824L391.672 140.277L374.692 139.689L369.032 147.851C368.694 148.329 368.196 148.67 367.628 148.813C364.476 149.674 361.419 150.854 358.504 152.333C357.991 152.595 357.399 152.66 356.84 152.514L348.826 150.477L336.374 162.08L337.868 170.196C337.957 170.708 337.881 171.235 337.653 171.702L337.54 171.894C335.856 174.708 334.471 177.69 333.408 180.792C333.221 181.324 332.852 181.772 332.367 182.06L323.843 187.12L323.265 204.1L331.427 209.76C331.892 210.078 332.229 210.551 332.378 211.095C333.226 214.274 334.406 217.355 335.898 220.287C335.979 220.454 336.044 220.629 336.091 220.808C336.176 221.18 336.176 221.567 336.091 221.94L334.053 229.864L345.656 242.316L353.739 240.833C354.303 240.73 354.886 240.834 355.38 241.127C358.21 242.809 361.202 244.201 364.312 245.282C364.872 245.448 365.347 245.826 365.636 246.335L370.685 254.96ZM381.178 233.486C380.76 233.486 380.341 233.486 379.922 233.486C370.512 233.321 361.548 229.445 354.981 222.703C348.414 215.96 344.777 206.897 344.86 197.486C344.942 188.074 348.739 179.077 355.423 172.451C362.108 165.825 371.138 162.108 380.55 162.108C389.962 162.108 398.993 165.825 405.677 172.451C412.361 179.077 416.158 188.074 416.241 197.486C416.324 206.897 412.686 215.96 406.119 222.703C399.553 229.445 390.589 233.321 381.178 233.486ZM381.178 166.596C372.955 166.738 365.121 170.123 359.381 176.013C353.641 181.904 350.46 189.823 350.531 198.047C350.602 206.272 353.918 214.135 359.759 219.926C365.6 225.716 373.491 228.965 381.716 228.965C389.941 228.965 397.832 225.716 403.673 219.926C409.514 214.135 412.831 206.272 412.901 198.047C412.972 189.823 409.792 181.904 404.052 176.013C398.312 170.123 390.477 166.738 382.254 166.596H381.178Z" fill="#EBEBEB"/>
<path d="M434.054 119.222L425.926 117.049L423.753 108.921L426.934 105.751L430.284 112.691L437.235 116.053L434.054 119.222Z" fill="#E0E0E0"/>
<path d="M434.552 113.789C434.904 113.437 435.183 113.02 435.373 112.56C435.563 112.101 435.661 111.609 435.661 111.111C435.661 110.614 435.563 110.122 435.373 109.663C435.183 109.203 434.904 108.786 434.552 108.434C434.201 108.083 433.783 107.804 433.324 107.613C432.864 107.423 432.372 107.325 431.875 107.325C431.378 107.325 430.885 107.423 430.426 107.613C429.967 107.804 429.549 108.083 429.198 108.434L433.239 102.367L438.65 105.106L439.839 110.766L434.552 113.789Z" fill="#E0E0E0"/>
<path d="M426.289 106.408L432.243 100.454L440.348 102.616L442.533 110.732L436.578 116.687L428.462 114.502L426.289 106.408ZM437.099 111.276C437.629 110.745 437.99 110.069 438.136 109.334C438.282 108.598 438.207 107.836 437.919 107.143C437.632 106.451 437.146 105.859 436.523 105.442C435.899 105.026 435.166 104.803 434.416 104.803C433.666 104.803 432.933 105.026 432.31 105.442C431.686 105.859 431.2 106.451 430.913 107.143C430.626 107.836 430.551 108.598 430.697 109.334C430.843 110.069 431.204 110.745 431.733 111.276C432.451 111.979 433.416 112.371 434.421 112.367C435.426 112.363 436.388 111.963 437.099 111.253V111.276Z" fill="#F0F0F0"/>
<path d="M102.129 335.876L106.487 334.698L107.653 330.34L105.955 328.642L104.155 332.366L100.42 334.166L102.129 335.876Z" fill="#E0E0E0"/>
<path d="M101.88 332.955C101.539 332.566 101.359 332.062 101.377 331.545C101.394 331.029 101.607 330.538 101.972 330.172C102.338 329.807 102.829 329.594 103.346 329.576C103.862 329.559 104.366 329.739 104.755 330.08L102.593 326.831L99.616 328.28L98.9821 331.336L101.88 332.955Z" fill="#E0E0E0"/>
<path d="M106.295 328.982L103.103 325.79L98.7444 326.922L97.6124 331.28L100.748 334.506L105.106 333.374L106.295 328.982ZM100.499 331.597C100.289 331.413 100.119 331.188 99.9998 330.936C99.8804 330.684 99.814 330.41 99.8047 330.131C99.7955 329.852 99.8436 329.575 99.9461 329.315C100.049 329.056 100.203 328.82 100.4 328.623C100.598 328.426 100.833 328.271 101.093 328.169C101.352 328.066 101.63 328.018 101.909 328.027C102.187 328.036 102.461 328.103 102.714 328.222C102.966 328.342 103.19 328.512 103.374 328.721C103.715 329.11 103.895 329.614 103.878 330.131C103.861 330.648 103.648 331.139 103.282 331.505C102.916 331.87 102.425 332.083 101.909 332.1C101.392 332.117 100.888 331.937 100.499 331.597Z" fill="#F0F0F0"/>
<path d="M86.4395 96.9671L90.0619 100.589C90.5149 101.035 91.1247 101.284 91.7599 101.284C92.3951 101.284 93.0049 101.035 93.4579 100.589C93.9005 100.135 94.1481 99.5258 94.1481 98.8915C94.1481 98.2572 93.9005 97.6479 93.4579 97.1935L89.8468 93.5824C89.3924 93.1399 88.7832 92.8922 88.1488 92.8922C87.5145 92.8922 86.9053 93.1399 86.4508 93.5824C86.0075 94.0334 85.7581 94.64 85.756 95.2724C85.7539 95.9049 85.9992 96.5131 86.4395 96.9671Z" fill="#F0F0F0"/>
<path d="M83.8925 87.9677C84.8378 87.7049 85.8392 87.7238 86.7738 88.0221C87.7085 88.3204 88.5357 88.8852 89.1539 89.6471C89.772 90.409 90.1542 91.3348 90.2536 92.3109C90.3529 93.2869 90.1651 94.2708 89.7131 95.1416C89.2611 96.0124 88.5647 96.7322 87.7093 97.2128C86.854 97.6933 85.8769 97.9136 84.8981 97.8466C83.9192 97.7796 82.9813 97.4282 82.1994 96.8356C81.4175 96.243 80.8256 95.4349 80.4965 94.5107C80.2876 93.8581 80.2098 93.1707 80.2676 92.488C80.3254 91.8053 80.5176 91.1408 80.8332 90.5326C81.1489 89.9245 81.5817 89.3848 82.1067 88.9446C82.6317 88.5044 83.2387 88.1724 83.8925 87.9677Z" fill="#E0E0E0"/>
<path d="M79.953 93.9046L80.4773 95.3641L91.2373 91.4988L90.713 90.0393L79.953 93.9046Z" fill="#F0F0F0"/>
<path d="M283 483.998C404.217 483.998 502.484 478.261 502.484 471.184C502.484 464.107 404.217 458.369 283 458.369C161.783 458.369 63.5165 464.107 63.5165 471.184C63.5165 478.261 161.783 483.998 283 483.998Z" fill="#F5F5F5"/>
<path d="M98.167 136.576C97.035 131.584 97.5331 127.395 99.6839 123.977C101.835 120.558 105.344 118.317 110.336 117.185C115.328 116.053 119.641 116.505 123.014 118.611C126.388 120.717 128.674 124.271 129.806 129.139C130.606 132.143 130.672 135.295 129.999 138.33C129.341 140.851 127.95 143.12 126.003 144.851C123.69 146.798 120.914 148.116 117.943 148.677C115.031 149.45 111.981 149.555 109.023 148.983C106.451 148.358 104.125 146.978 102.344 145.021C100.216 142.634 98.7727 139.716 98.167 136.576ZM107.608 134.47C108.31 137.549 109.385 139.632 110.834 140.719C111.582 141.218 112.423 141.56 113.307 141.725C114.19 141.891 115.098 141.876 115.976 141.681C116.854 141.486 117.683 141.116 118.414 140.593C119.145 140.07 119.763 139.404 120.23 138.636C121.045 137.063 121.056 134.561 120.286 131.154C119.63 128.278 118.569 126.309 117.105 125.245C116.368 124.715 115.522 124.358 114.629 124.2C113.735 124.041 112.818 124.085 111.943 124.328C111.068 124.491 110.242 124.852 109.526 125.381C108.811 125.91 108.224 126.595 107.812 127.384C106.974 129.048 106.895 131.312 107.608 134.47Z" fill="#263238"/>
<path d="M134.244 132.84C133.842 131.298 133.77 129.687 134.033 128.115C134.297 126.543 134.889 125.044 135.772 123.716C136.762 122.306 138.02 121.105 139.475 120.182C140.93 119.26 142.553 118.633 144.251 118.339C148.681 117.336 152.318 117.86 155.163 119.913C157.558 121.769 159.185 124.441 159.737 127.42C160.288 130.399 159.724 133.477 158.152 136.066C156.386 138.761 153.511 140.557 149.526 141.455C146.456 142.313 143.181 142.048 140.289 140.708C138.742 139.952 137.392 138.848 136.343 137.483C135.294 136.118 134.576 134.529 134.244 132.84ZM142.745 130.882C142.974 132.464 143.747 133.917 144.93 134.991C145.399 135.346 145.94 135.595 146.515 135.72C147.089 135.845 147.685 135.843 148.259 135.715C148.833 135.587 149.372 135.335 149.839 134.977C150.306 134.62 150.69 134.165 150.964 133.644C151.556 132.123 151.612 130.446 151.122 128.89C150.884 127.345 150.12 125.929 148.96 124.882C148.51 124.517 147.981 124.261 147.416 124.133C146.85 124.006 146.263 124.01 145.7 124.146C145.112 124.268 144.56 124.522 144.086 124.889C143.611 125.256 143.226 125.726 142.96 126.263C142.351 127.73 142.275 129.365 142.745 130.882Z" fill="#263238"/>
<path d="M168.193 145.541L161.253 114.977L169.177 113.166L169.925 116.438C170.484 115.133 171.295 113.952 172.313 112.962C173.43 112.014 174.764 111.357 176.196 111.049C177.519 110.689 178.912 110.669 180.245 110.989C181.579 111.31 182.81 111.961 183.825 112.883C186.063 114.975 187.581 117.721 188.161 120.728C188.999 124.407 188.75 127.418 187.437 129.784C186.812 130.915 185.949 131.897 184.907 132.661C183.865 133.425 182.669 133.954 181.403 134.21C180.183 134.499 178.918 134.549 177.679 134.357C176.49 134.149 175.357 133.698 174.351 133.033L176.75 143.594L168.193 145.541ZM172.279 124.192C172.487 125.606 173.194 126.898 174.271 127.837C174.704 128.168 175.205 128.397 175.738 128.506C176.272 128.616 176.823 128.604 177.35 128.471C177.841 128.372 178.301 128.16 178.694 127.852C179.087 127.543 179.403 127.146 179.614 126.693C180.096 125.277 180.096 123.741 179.614 122.324C179.408 120.903 178.725 119.594 177.679 118.611C177.291 118.289 176.833 118.06 176.343 117.942C175.852 117.824 175.341 117.821 174.849 117.932C174.329 118.044 173.841 118.272 173.421 118.6C173.002 118.927 172.662 119.345 172.426 119.822C171.872 121.218 171.82 122.762 172.279 124.192Z" fill="#263238"/>
<path d="M191.795 124.86L200.036 122.154C200.474 122.951 201.156 123.586 201.983 123.965C202.872 124.223 203.813 124.243 204.712 124.025C205.612 123.806 206.439 123.357 207.111 122.72C207.299 122.52 207.435 122.278 207.508 122.013C207.581 121.749 207.588 121.471 207.53 121.203C207.461 120.897 207.303 120.618 207.075 120.402C206.847 120.186 206.56 120.043 206.25 119.992C204.971 119.852 203.681 119.852 202.402 119.992C200.255 120.175 198.096 120.175 195.949 119.992C194.692 119.81 193.514 119.271 192.553 118.441C191.528 117.554 190.82 116.357 190.536 115.031C190.252 113.706 190.408 112.324 190.98 111.094C191.64 109.779 192.666 108.682 193.934 107.936C195.74 106.91 197.702 106.188 199.741 105.797C201.688 105.268 203.702 105.024 205.718 105.072C206.985 105.154 208.213 105.542 209.295 106.204C210.449 106.983 211.428 107.993 212.171 109.17L204.247 111.785C203.951 111.195 203.458 110.727 202.854 110.461C202.029 110.165 201.133 110.126 200.285 110.347C199.535 110.452 198.84 110.798 198.304 111.332C198.134 111.514 198.01 111.736 197.945 111.976C197.88 112.217 197.875 112.47 197.93 112.713C197.992 112.981 198.132 113.224 198.335 113.41C198.537 113.596 198.79 113.716 199.062 113.755C200.328 113.902 201.607 113.875 202.866 113.675C205.049 113.359 207.263 113.329 209.454 113.585C210.832 113.779 212.123 114.374 213.167 115.294C214.111 116.15 214.767 117.277 215.046 118.52C215.336 119.854 215.23 121.243 214.74 122.516C214.142 124.024 213.1 125.315 211.752 126.218C209.766 127.516 207.542 128.405 205.209 128.833C201.171 129.754 198.153 129.833 196.153 129.071C194.204 128.292 192.639 126.78 191.795 124.86Z" fill="#263238"/>
<path d="M219.438 96.8652H228.732V103.997L227.023 118.339H221.272L219.438 104.019V96.8652ZM219.891 120.501H228.562V128.176H219.891V120.501Z" fill="#263238"/>
<path d="M145.666 194.229H145.462C140.368 192.248 137.323 190.323 135.738 188.003C134.498 188.238 133.214 188.063 132.082 187.505C130.755 186.855 129.655 185.822 128.923 184.539C128.539 184.834 128.086 185.027 127.608 185.1C127.129 185.173 126.639 185.124 126.184 184.958C124.789 184.436 123.598 183.479 122.788 182.229C122.281 182.607 121.651 182.781 121.022 182.716C117.626 182.444 113.098 175.743 112.77 168.611C112.767 168.461 112.821 168.315 112.922 168.203C113.023 168.092 113.163 168.023 113.313 168.011C113.388 168.008 113.462 168.02 113.532 168.046C113.601 168.071 113.666 168.111 113.72 168.161C113.775 168.212 113.819 168.272 113.85 168.34C113.881 168.407 113.899 168.48 113.902 168.555C114.219 175.347 118.554 181.38 121.124 181.584C121.311 181.605 121.5 181.589 121.681 181.537C121.862 181.484 122.03 181.396 122.177 181.279C121.291 179.665 120.735 177.891 120.541 176.06C120.347 174.23 120.518 172.379 121.045 170.615C122.018 167.219 122.879 165.883 123.92 166.087C125.867 166.574 125.607 174.011 124.577 178.867C124.421 179.743 124.098 180.581 123.626 181.335C124.293 182.454 125.3 183.331 126.501 183.837C126.821 183.959 127.169 183.986 127.504 183.916C127.839 183.846 128.147 183.681 128.391 183.441C127.508 181.256 127.259 178.267 128.527 174.464C130.112 169.449 130.791 169.313 131.142 169.223C131.274 169.195 131.411 169.203 131.539 169.247C131.666 169.291 131.78 169.369 131.867 169.472C132.919 170.66 131.663 178.449 130.35 182.297C130.196 182.761 129.983 183.202 129.716 183.61C130.323 184.835 131.313 185.828 132.535 186.44C133.336 186.83 134.227 186.998 135.116 186.927C135.014 186.712 134.923 186.497 134.833 186.271C133.938 183.837 134.38 181.041 136.18 177.69C137.368 175.483 138.342 174.441 139.247 174.441C139.488 174.444 139.722 174.517 139.923 174.649C140.123 174.781 140.282 174.969 140.379 175.188C141.364 177.011 140.651 183.022 138.704 186.01C138.248 186.695 137.614 187.243 136.87 187.595C138.387 189.587 141.274 191.342 145.926 193.131C145.996 193.156 146.06 193.195 146.114 193.245C146.169 193.295 146.213 193.356 146.243 193.423C146.274 193.491 146.291 193.564 146.293 193.638C146.294 193.712 146.281 193.786 146.254 193.855C146.21 193.973 146.129 194.073 146.023 194.141C145.917 194.208 145.791 194.239 145.666 194.229ZM139.236 175.585C139.236 175.585 138.591 175.585 137.164 178.245C135.523 181.279 135.104 183.78 135.885 185.886C135.98 186.146 136.093 186.4 136.225 186.644C136.838 186.391 137.359 185.956 137.719 185.399C139.304 182.977 140.062 177.996 139.474 176.049C139.394 175.652 139.236 175.585 139.236 175.585ZM131.108 170.819C130.495 172.108 129.988 173.444 129.591 174.815C128.723 177.191 128.574 179.769 129.161 182.229L129.263 181.935C130.452 178.347 131.085 174.598 131.142 170.819H131.108ZM123.66 167.253C123.467 167.423 122.913 168.136 122.131 170.898C121.208 173.998 121.499 177.333 122.947 180.226C123.179 179.72 123.35 179.188 123.456 178.641C124.667 173.083 124.328 168.057 123.694 167.253H123.66Z" fill="#263238"/>
<path d="M188.704 253.568C186.895 253.585 185.113 253.121 183.543 252.221C183.413 252.143 183.32 252.018 183.281 251.872C183.243 251.726 183.264 251.571 183.339 251.44C183.376 251.376 183.426 251.32 183.485 251.276C183.544 251.232 183.611 251.2 183.683 251.182C183.755 251.164 183.829 251.16 183.902 251.172C183.976 251.183 184.046 251.209 184.109 251.247C188.15 253.613 193.368 251.961 194.444 250.229C194.521 250.12 194.576 249.997 194.606 249.867C194.635 249.736 194.637 249.602 194.613 249.47C192.547 249.589 190.501 249.007 188.806 247.817C185.92 246.018 185.693 245.474 185.716 245.044C185.721 244.92 185.76 244.801 185.828 244.697C185.896 244.594 185.99 244.51 186.101 244.455C187.233 243.889 192.338 246.233 194.466 247.636C194.721 247.806 194.957 248.003 195.168 248.225C196.004 248.035 196.758 247.583 197.319 246.935C197.635 246.564 197.863 246.126 197.987 245.655H197.76C195.949 245.836 194.138 245.055 192.202 243.267C190.867 242.044 190.357 241.195 190.527 240.527C190.578 240.34 190.682 240.171 190.827 240.04C190.971 239.91 191.15 239.824 191.342 239.792C192.904 239.395 196.776 241.048 198.349 242.78C198.7 243.157 198.949 243.616 199.074 244.116C200.556 243.425 202.119 241.852 203.964 239.282C204.007 239.221 204.061 239.169 204.124 239.129C204.188 239.089 204.258 239.062 204.332 239.049C204.405 239.037 204.481 239.039 204.554 239.055C204.627 239.072 204.695 239.103 204.756 239.146C204.877 239.235 204.959 239.367 204.985 239.515C205.01 239.663 204.977 239.815 204.892 239.939C202.753 242.927 200.964 244.625 199.175 245.316C199.083 246.152 198.739 246.942 198.191 247.58C197.538 248.338 196.682 248.892 195.723 249.176C195.777 249.446 195.776 249.724 195.722 249.994C195.668 250.264 195.56 250.521 195.406 250.749C194.455 252.368 191.716 253.568 188.704 253.568ZM187.697 245.712C188.082 245.995 188.625 246.369 189.406 246.844C190.623 247.665 192.022 248.178 193.481 248.338C191.659 247.246 189.719 246.365 187.697 245.712ZM191.648 240.901C191.973 241.513 192.424 242.05 192.972 242.474C194.647 244.025 196.176 244.738 197.647 244.557H198.009C197.929 244.206 197.757 243.882 197.511 243.618C195.927 241.829 192.44 240.72 191.648 240.901Z" fill="#263238"/>
<path d="M203.692 252.017L186.056 255.221L170.038 167.808L136.01 173.988L80.5418 272.472L86.4961 304.972L157.642 292.056L162.51 318.635L196.538 312.432L191.67 285.853L209.307 282.649L203.692 252.017ZM114.434 268.284L143.866 216.699L152.073 261.458L114.434 268.284Z" fill="#24184E"/>
<path d="M345.747 161.876C345.211 156.381 343.994 150.974 342.124 145.779C340.201 140.803 337.528 136.15 334.2 131.98C330.261 127.129 325.368 123.137 319.824 120.252C313.787 116.939 305.78 114.634 295.803 113.336C275.087 110.634 258.945 114.309 247.376 124.362C235.807 134.414 228.185 153.658 224.51 182.094C223.042 192.721 222.663 203.47 223.378 214.174C224.132 223.985 225.936 231.883 228.789 237.867C232.419 245.938 238.145 252.888 245.372 257.994C252.519 263.013 262.33 266.329 274.804 267.944C296.976 270.835 313.417 266.575 324.126 255.164C334.834 243.754 341.928 224.472 345.407 197.319C346.954 185.562 347.068 173.661 345.747 161.876Z" fill="#24184E"/>
<path d="M285.004 256.319C282.276 256.228 279.344 255.979 276.389 255.594C266.02 254.247 258.005 251.621 252.549 247.795C247.108 243.953 242.806 238.712 240.097 232.626L240.041 232.502C237.867 227.974 236.441 221.465 235.818 213.258C235.159 203.399 235.508 193.5 236.86 183.712C240.901 152.333 249.244 139.236 255.526 133.78C262.862 127.418 272.767 124.543 285.785 124.995C288.456 125.086 291.286 125.324 294.196 125.697C302.55 126.829 309.172 128.641 313.858 131.199C317.908 133.284 321.493 136.169 324.397 139.678C326.938 142.847 328.981 146.385 330.453 150.171C331.957 154.393 332.931 158.784 333.351 163.246C334.559 174.056 334.448 184.973 333.023 195.757C329.887 220.14 323.82 237.279 315.002 246.697C308.459 253.67 298.644 256.885 284.992 256.364L285.004 256.319Z" fill="#263238"/>
<path d="M307.157 162.204L307.304 157.914L304.667 157.054C304.554 155.603 304.319 154.164 303.965 152.752L306.229 151.099L304.712 147.069L301.95 147.296C301.3 146.001 300.543 144.762 299.686 143.594L301.112 141.206L298.169 138.07L295.701 139.338C294.597 138.389 293.415 137.533 292.169 136.78L292.565 134.04L288.649 132.263L286.86 134.368C285.475 133.92 284.055 133.586 282.615 133.372L281.947 130.689L277.646 130.542L276.797 133.168C275.346 133.285 273.907 133.519 272.495 133.87L270.831 131.606L266.801 133.112L267.027 135.874C265.733 136.524 264.494 137.281 263.326 138.138L260.949 136.7L257.802 139.632L259.07 142.111C258.117 143.215 257.265 144.4 256.523 145.654L253.783 145.236L251.995 149.152L254.111 150.941C253.652 152.327 253.319 153.751 253.115 155.197L250.421 155.876L250.274 160.155L252.911 161.016C253.022 162.471 253.257 163.914 253.613 165.329L251.349 166.97L252.866 171L255.628 170.774C256.271 172.072 257.029 173.311 257.892 174.475L256.455 176.864L259.398 179.999L261.866 178.743C262.97 179.689 264.151 180.54 265.397 181.29L264.99 184.029L268.907 185.806L270.706 183.712C272.095 184.159 273.519 184.488 274.963 184.697L275.631 187.391L279.921 187.538L280.77 184.901C282.225 184.79 283.668 184.556 285.083 184.199L286.724 186.463L290.754 184.957L290.539 182.207C291.829 181.548 293.067 180.791 294.241 179.943L296.618 181.369L299.765 178.437L298.508 175.958C299.457 174.858 300.305 173.676 301.044 172.426L303.784 172.834L305.572 168.917L303.467 167.128C303.917 165.745 304.247 164.324 304.451 162.883L307.157 162.204ZM278.178 176.094C274.825 175.971 271.583 174.858 268.863 172.895C266.142 170.932 264.064 168.207 262.89 165.064C261.717 161.921 261.501 158.501 262.269 155.235C263.038 151.969 264.757 149.004 267.209 146.714C269.662 144.425 272.737 142.913 276.048 142.369C279.359 141.826 282.756 142.276 285.812 143.662C288.867 145.048 291.444 147.308 293.216 150.156C294.988 153.005 295.876 156.315 295.769 159.669C295.697 161.904 295.185 164.103 294.261 166.139C293.338 168.176 292.021 170.01 290.386 171.536C288.751 173.062 286.832 174.251 284.736 175.033C282.641 175.815 280.413 176.176 278.178 176.094Z" fill="#24184E"/>
<path opacity="0.3" d="M325.02 240.969L325.337 238.071L323.594 237.369C323.591 236.383 323.507 235.399 323.344 234.426L324.918 233.418L324.114 230.622H322.235C321.864 229.713 321.413 228.838 320.888 228.007L321.952 226.468L320.141 224.204L318.409 224.928C317.707 224.234 316.95 223.598 316.145 223.027L316.564 221.193L314.017 219.789L312.681 221.136C311.771 220.762 310.832 220.463 309.874 220.242L309.557 218.397L306.67 218.068L305.957 219.812C304.974 219.816 303.993 219.907 303.025 220.083L302.018 218.476L299.222 219.302V221.181C298.312 221.557 297.437 222.012 296.607 222.54L295.067 221.408L292.803 223.219L293.528 224.951C292.837 225.653 292.205 226.411 291.637 227.215L289.803 226.808L288.411 229.355L289.747 230.679C289.367 231.591 289.068 232.534 288.852 233.498L286.996 233.803L286.69 236.69L288.422 237.414C288.423 238.394 288.51 239.371 288.683 240.335L287.087 241.342L287.902 244.138H289.792C290.17 245.043 290.624 245.914 291.15 246.742L290.018 248.282L291.83 250.546L293.584 249.81C294.281 250.506 295.039 251.139 295.848 251.7L295.452 253.568L297.999 254.96L299.323 253.636C300.234 254.001 301.173 254.293 302.131 254.508L302.459 256.364L305.346 256.681L306.047 254.949C307.049 254.948 308.048 254.864 309.036 254.7L310.043 256.296L312.828 255.481V253.602C313.738 253.219 314.616 252.765 315.454 252.244L316.971 253.376L319.235 251.553L318.5 249.821C319.197 249.119 319.837 248.362 320.413 247.557L322.235 247.965L323.639 245.418L322.303 244.104C322.667 243.193 322.958 242.254 323.175 241.297L325.02 240.969ZM310.451 239.837C309.972 240.713 309.244 241.428 308.359 241.89C307.473 242.353 306.471 242.542 305.478 242.435C304.485 242.328 303.546 241.928 302.78 241.287C302.014 240.646 301.456 239.792 301.175 238.833C300.895 237.875 300.905 236.854 301.204 235.901C301.504 234.949 302.079 234.106 302.858 233.48C303.636 232.855 304.583 232.474 305.578 232.386C306.573 232.299 307.571 232.508 308.447 232.988C309.618 233.633 310.486 234.716 310.862 235.999C311.237 237.282 311.09 238.662 310.451 239.837Z" fill="#24184E"/>
<path d="M341.06 192.044L337.664 189.712C337.33 188.5 336.875 187.324 336.306 186.203L337.166 182.807L332.276 177.566L328.88 178.199C327.803 177.558 326.665 177.023 325.484 176.603L323.39 173.071L316.224 172.834L313.892 176.23C312.678 176.559 311.502 177.014 310.383 177.588L306.987 176.717L301.746 181.618L302.38 185.014C301.729 186.086 301.194 187.225 300.784 188.41L297.263 190.504L297.014 197.67L300.41 200.002C300.739 201.223 301.194 202.407 301.769 203.534L300.908 206.93L305.798 212.171L309.194 211.548C310.272 212.189 311.41 212.723 312.59 213.144L314.673 216.665L321.85 216.914L324.171 213.518C325.395 213.186 326.582 212.731 327.714 212.159L331.11 213.02L336.351 208.13L335.729 204.734C336.372 203.657 336.907 202.52 337.325 201.338L340.845 199.243L341.06 192.044ZM318.726 202.934C317.133 202.879 315.591 202.353 314.297 201.422C313.003 200.492 312.014 199.198 311.454 197.705C310.895 196.212 310.792 194.587 311.156 193.035C311.521 191.483 312.337 190.074 313.503 188.987C314.668 187.899 316.13 187.181 317.703 186.924C319.276 186.667 320.891 186.882 322.342 187.543C323.792 188.203 325.015 189.279 325.854 190.635C326.694 191.99 327.112 193.564 327.057 195.157C326.981 197.292 326.061 199.309 324.499 200.767C322.937 202.225 320.861 203.004 318.726 202.934Z" fill="white"/>
<path d="M365.636 134.844L366.225 133.429C366.625 133.203 367.004 132.942 367.357 132.648H368.67L370.209 130.384L369.711 129.173C369.902 128.769 370.054 128.348 370.164 127.916L371.296 126.875L370.821 124.214L369.394 123.626C369.171 123.224 368.909 122.845 368.613 122.494V121.181L366.406 119.641L365.183 120.15C364.736 119.993 364.273 119.887 363.802 119.834L362.761 118.702L360.112 119.177L359.512 120.603C359.092 120.821 358.694 121.079 358.323 121.373H357.022L355.482 123.637L355.98 124.848C355.828 125.297 355.722 125.759 355.663 126.229L354.531 127.282L355.007 129.931L356.433 130.52C356.649 130.923 356.907 131.302 357.203 131.652V132.953L359.467 134.493L360.678 133.995C361.131 134.142 361.597 134.244 362.07 134.3L363.112 135.432L365.636 134.844ZM359.976 127.508C359.869 126.918 359.94 126.309 360.179 125.758C360.418 125.208 360.815 124.741 361.32 124.416C361.825 124.091 362.415 123.924 363.015 123.934C363.615 123.945 364.199 124.133 364.692 124.476C365.185 124.818 365.565 125.299 365.785 125.858C366.004 126.416 366.053 127.028 365.925 127.614C365.797 128.201 365.498 128.736 365.066 129.152C364.634 129.569 364.087 129.848 363.497 129.954C362.706 130.092 361.892 129.913 361.233 129.455C360.574 128.997 360.122 128.298 359.976 127.508Z" fill="#24184E"/>
<path d="M334.631 127.339L333.759 126.603C335.627 124.286 337.935 122.362 340.551 120.943L341.083 121.939C338.595 123.293 336.402 125.129 334.631 127.339Z" fill="#24184E"/>
<path d="M343.664 120.898L343.222 119.856C347.403 118.04 351.974 117.308 356.512 117.728L356.399 118.86C352.05 118.45 347.668 119.151 343.664 120.898Z" fill="#24184E"/>
<path d="M341.524 128.731L340.596 128.097C343.323 124.414 347.293 121.845 351.769 120.864L351.984 121.996C347.801 122.909 344.087 125.301 341.524 128.731Z" fill="#24184E"/>
<path d="M266.405 237.72C266.251 237.715 266.104 237.65 265.997 237.539L263.631 235.094C262.425 234.984 261.232 234.765 260.066 234.437L256.364 236.067C256.282 236.112 256.191 236.135 256.098 236.135C256.005 236.135 255.914 236.112 255.832 236.067L249.629 231.958C249.549 231.905 249.484 231.833 249.44 231.748C249.396 231.662 249.376 231.567 249.38 231.471V227.441C248.622 226.494 247.955 225.479 247.387 224.408L244.206 223.185C244.117 223.151 244.038 223.094 243.977 223.021C243.916 222.948 243.874 222.86 243.855 222.766L242.384 215.476C242.364 215.383 242.369 215.287 242.396 215.196C242.424 215.105 242.474 215.022 242.542 214.955L244.987 212.59C245.104 211.384 245.324 210.192 245.644 209.024L244.014 205.322C243.969 205.241 243.946 205.149 243.946 205.056C243.946 204.963 243.969 204.872 244.014 204.79L248.123 198.587C248.174 198.505 248.246 198.439 248.332 198.395C248.418 198.351 248.514 198.331 248.61 198.338L252.64 198.394C253.584 197.633 254.6 196.966 255.674 196.402L256.907 193.221C256.94 193.133 256.995 193.054 257.066 192.993C257.137 192.932 257.223 192.889 257.315 192.87L264.605 191.399C264.698 191.378 264.795 191.382 264.886 191.41C264.977 191.437 265.06 191.488 265.126 191.557L267.492 194.002C268.701 194.112 269.899 194.332 271.069 194.659L274.759 193.029C274.843 192.984 274.936 192.961 275.031 192.961C275.125 192.961 275.219 192.984 275.302 193.029L281.494 197.138C281.573 197.193 281.637 197.266 281.683 197.35C281.728 197.435 281.753 197.529 281.755 197.625L281.687 201.654C282.448 202.601 283.118 203.617 283.691 204.688L286.86 205.922C286.948 205.955 287.027 206.009 287.088 206.08C287.15 206.152 287.192 206.238 287.211 206.33L288.694 213.62C288.711 213.713 288.706 213.809 288.679 213.899C288.651 213.99 288.602 214.073 288.535 214.14L286.079 216.518C285.966 217.72 285.746 218.909 285.422 220.072L287.053 223.774C287.097 223.857 287.12 223.951 287.12 224.045C287.12 224.14 287.097 224.234 287.053 224.317L283 230.464C282.947 230.541 282.876 230.604 282.793 230.647C282.71 230.69 282.618 230.713 282.525 230.713L278.483 230.656C277.536 231.407 276.524 232.074 275.461 232.649L274.227 235.83C274.193 235.919 274.137 235.999 274.064 236.06C273.99 236.122 273.902 236.163 273.808 236.18L266.518 237.72H266.405ZM260.032 233.192C260.084 233.182 260.138 233.182 260.19 233.192C261.413 233.548 262.668 233.779 263.937 233.883C264.073 233.899 264.2 233.958 264.299 234.052L266.563 236.43L273.242 235.082L274.442 231.981C274.498 231.855 274.593 231.752 274.714 231.686C275.845 231.102 276.911 230.4 277.895 229.592C277.999 229.504 278.132 229.46 278.268 229.468L282.196 229.524L285.955 223.864L284.37 220.265C284.325 220.14 284.325 220.004 284.37 219.88C284.72 218.656 284.951 217.401 285.06 216.133C285.072 215.996 285.132 215.867 285.23 215.771L287.607 213.507L286.26 206.828L283.17 205.628C283.037 205.579 282.928 205.482 282.864 205.356C282.277 204.227 281.575 203.161 280.77 202.175C280.689 202.072 280.645 201.944 280.645 201.813V197.874L274.985 194.115L271.397 195.7C271.269 195.746 271.129 195.746 271.001 195.7C269.774 195.346 268.515 195.115 267.243 195.01C267.107 194.994 266.98 194.934 266.88 194.84L264.616 192.463L257.938 193.821L256.749 196.968C256.701 197.098 256.609 197.206 256.489 197.274C255.353 197.857 254.283 198.559 253.296 199.368C253.248 199.412 253.19 199.446 253.128 199.467C253.066 199.489 253 199.497 252.934 199.492L249.006 199.436L245.236 205.096L246.821 208.696C246.857 208.772 246.876 208.855 246.876 208.939C246.876 209.023 246.857 209.106 246.821 209.182C246.486 210.377 246.266 211.602 246.165 212.839C246.154 212.976 246.094 213.105 245.995 213.201L243.618 215.465L244.976 222.144L248.055 223.344C248.193 223.401 248.305 223.505 248.372 223.638C248.956 224.76 249.654 225.818 250.455 226.796C250.539 226.898 250.583 227.027 250.58 227.158V231.098L256.24 234.856L259.839 233.271C259.898 233.234 259.963 233.207 260.032 233.192ZM265.59 229.524C262.865 229.522 260.192 228.781 257.855 227.381C255.517 225.981 253.603 223.973 252.315 221.572C251.028 219.171 250.415 216.466 250.541 213.744C250.668 211.022 251.53 208.386 253.036 206.115C254.476 203.936 256.457 202.168 258.785 200.984C261.113 199.801 263.708 199.241 266.317 199.361C268.926 199.481 271.459 200.276 273.668 201.668C275.878 203.06 277.688 205.002 278.922 207.303C280.157 209.605 280.772 212.187 280.71 214.798C280.647 217.409 279.907 219.959 278.564 222.198C277.22 224.438 275.318 226.29 273.044 227.574C270.77 228.858 268.201 229.53 265.59 229.524ZM253.987 206.737C252.463 209.036 251.655 211.735 251.665 214.493C251.676 217.251 252.503 219.944 254.044 222.232C255.585 224.52 257.769 226.299 260.321 227.345C262.873 228.392 265.677 228.658 268.381 228.11C271.084 227.563 273.564 226.226 275.507 224.269C277.451 222.312 278.77 219.823 279.299 217.116C279.828 214.409 279.542 211.606 278.478 209.062C277.414 206.517 275.62 204.345 273.321 202.82C271.797 201.8 270.086 201.092 268.287 200.737C266.487 200.381 264.636 200.386 262.838 200.75C261.04 201.114 259.333 201.831 257.814 202.858C256.294 203.886 254.994 205.204 253.987 206.737Z" fill="white"/>
<path d="M482.04 262.228L464.267 259.828L476.017 171.747L441.74 167.129L358.595 243.674L354.225 276.423L425.87 286.09L422.293 312.885L456.57 317.503L460.147 290.72L477.919 293.12L482.04 262.228ZM392.136 250.093L436.012 210.099L429.99 255.198L392.136 250.093Z" fill="#24184E"/>
<path d="M446.155 316.666H446.008C445.861 316.638 445.731 316.554 445.646 316.431C445.561 316.308 445.529 316.156 445.555 316.009L472.044 171.181C472.074 171.036 472.159 170.907 472.282 170.823C472.404 170.739 472.554 170.705 472.701 170.728C472.847 170.756 472.977 170.84 473.062 170.963C473.147 171.086 473.18 171.238 473.153 171.385L446.721 316.202C446.695 316.332 446.624 316.45 446.521 316.535C446.418 316.619 446.289 316.666 446.155 316.666Z" fill="#263238"/>
<path d="M469.588 173.615C469.579 173.861 469.472 174.094 469.292 174.261C469.111 174.429 468.872 174.518 468.625 174.509C468.379 174.5 468.147 174.394 467.979 174.213C467.811 174.033 467.722 173.793 467.731 173.547C467.74 173.301 467.847 173.068 468.027 172.901C468.207 172.733 468.447 172.644 468.693 172.653C468.939 172.662 469.172 172.768 469.34 172.949C469.507 173.129 469.597 173.369 469.588 173.615Z" fill="#263238"/>
<path d="M465.818 193.199C465.811 193.382 465.75 193.559 465.643 193.708C465.535 193.857 465.386 193.97 465.214 194.034C465.042 194.098 464.855 194.109 464.676 194.067C464.497 194.025 464.335 193.93 464.21 193.796C464.086 193.661 464.003 193.493 463.974 193.312C463.945 193.131 463.97 192.945 464.046 192.778C464.123 192.611 464.247 192.47 464.403 192.374C464.559 192.278 464.74 192.23 464.924 192.236C465.046 192.241 465.166 192.269 465.276 192.32C465.387 192.371 465.487 192.443 465.57 192.532C465.653 192.621 465.718 192.726 465.761 192.841C465.803 192.955 465.823 193.077 465.818 193.199Z" fill="#263238"/>
<path d="M462.048 212.816C462.044 212.938 462.016 213.058 461.965 213.169C461.914 213.28 461.842 213.38 461.753 213.463C461.663 213.546 461.559 213.61 461.444 213.653C461.33 213.695 461.208 213.715 461.086 213.71C460.965 213.707 460.845 213.68 460.734 213.631C460.623 213.581 460.524 213.51 460.44 213.422C460.357 213.333 460.292 213.229 460.25 213.116C460.207 213.002 460.187 212.881 460.192 212.759C460.195 212.636 460.222 212.515 460.272 212.403C460.322 212.291 460.394 212.19 460.484 212.105C460.573 212.021 460.679 211.956 460.794 211.912C460.909 211.869 461.031 211.849 461.154 211.854C461.399 211.866 461.63 211.973 461.797 212.153C461.965 212.332 462.055 212.571 462.048 212.816Z" fill="#263238"/>
<path d="M454.623 233.192C454.597 233.419 454.489 233.629 454.319 233.781C454.149 233.934 453.928 234.018 453.7 234.018C453.472 234.018 453.251 233.934 453.081 233.781C452.911 233.629 452.803 233.419 452.777 233.192C452.763 233.062 452.776 232.931 452.816 232.807C452.856 232.682 452.921 232.568 453.008 232.471C453.095 232.373 453.202 232.296 453.321 232.242C453.44 232.189 453.569 232.161 453.7 232.161C453.831 232.161 453.96 232.189 454.079 232.242C454.198 232.296 454.304 232.373 454.392 232.471C454.479 232.568 454.544 232.682 454.584 232.807C454.624 232.931 454.637 233.062 454.623 233.192Z" fill="#263238"/>
<path d="M454.498 251.949C454.495 252.072 454.468 252.192 454.418 252.304C454.367 252.416 454.295 252.516 454.206 252.599C454.116 252.683 454.01 252.747 453.895 252.789C453.78 252.831 453.658 252.85 453.536 252.844C453.352 252.837 453.175 252.776 453.026 252.668C452.878 252.561 452.764 252.411 452.7 252.239C452.636 252.067 452.625 251.88 452.667 251.702C452.71 251.523 452.804 251.361 452.938 251.236C453.073 251.111 453.241 251.029 453.423 251C453.604 250.97 453.79 250.996 453.956 251.072C454.123 251.148 454.264 251.272 454.36 251.428C454.457 251.585 454.505 251.766 454.498 251.949Z" fill="#263238"/>
<path d="M450.728 271.533C450.724 271.717 450.665 271.895 450.558 272.046C450.452 272.196 450.304 272.311 450.132 272.377C449.96 272.442 449.772 272.456 449.593 272.414C449.413 272.373 449.25 272.28 449.124 272.146C448.998 272.012 448.915 271.843 448.885 271.661C448.855 271.48 448.879 271.294 448.955 271.126C449.031 270.958 449.156 270.817 449.312 270.72C449.469 270.624 449.65 270.575 449.834 270.582C450.078 270.591 450.309 270.696 450.477 270.874C450.644 271.052 450.735 271.289 450.728 271.533Z" fill="#263238"/>
<path d="M446.959 291.117C446.95 291.364 446.844 291.597 446.664 291.767C446.484 291.937 446.244 292.028 445.997 292.022C445.875 292.018 445.755 291.989 445.644 291.939C445.533 291.888 445.433 291.816 445.35 291.726C445.267 291.637 445.202 291.532 445.16 291.418C445.117 291.303 445.098 291.182 445.102 291.06C445.106 290.938 445.134 290.818 445.184 290.707C445.234 290.596 445.305 290.495 445.394 290.412C445.483 290.328 445.588 290.263 445.702 290.22C445.816 290.177 445.937 290.156 446.059 290.16C446.181 290.164 446.301 290.191 446.412 290.241C446.523 290.292 446.623 290.363 446.707 290.452C446.791 290.541 446.856 290.645 446.899 290.759C446.942 290.873 446.963 290.995 446.959 291.117Z" fill="#263238"/>
<path d="M443.178 310.711C443.171 310.895 443.11 311.072 443.003 311.221C442.895 311.37 442.746 311.483 442.574 311.547C442.402 311.611 442.215 311.622 442.036 311.58C441.857 311.538 441.695 311.443 441.57 311.309C441.446 311.174 441.363 311.006 441.334 310.825C441.305 310.644 441.33 310.458 441.406 310.291C441.483 310.124 441.607 309.983 441.763 309.887C441.919 309.791 442.1 309.743 442.284 309.749C442.406 309.752 442.527 309.779 442.638 309.83C442.75 309.88 442.85 309.952 442.934 310.042C443.017 310.131 443.082 310.237 443.124 310.352C443.166 310.467 443.184 310.589 443.178 310.711Z" fill="#263238"/>
<path d="M453.694 233.701C453.567 233.702 453.443 233.658 453.344 233.577C453.245 233.497 453.177 233.385 453.151 233.26C453.134 233.187 453.132 233.112 453.145 233.038C453.157 232.964 453.184 232.894 453.224 232.831C453.264 232.768 453.317 232.713 453.378 232.67C453.439 232.627 453.508 232.597 453.581 232.581L456.388 231.981C456.462 231.964 456.538 231.963 456.613 231.976C456.687 231.989 456.758 232.017 456.821 232.058C456.884 232.1 456.939 232.153 456.981 232.215C457.023 232.278 457.053 232.348 457.068 232.422C457.083 232.495 457.083 232.57 457.069 232.643C457.055 232.716 457.026 232.786 456.985 232.848C456.944 232.91 456.891 232.963 456.83 233.005C456.768 233.046 456.699 233.075 456.626 233.09L453.819 233.69L453.694 233.701Z" fill="#263238"/>
<path d="M463.079 223.276C461.743 226.739 460.609 230.277 459.683 233.871C458.834 237.867 458.788 246.81 458.788 246.81" fill="#263238"/>
<path d="M458.788 247.376C458.638 247.37 458.496 247.307 458.391 247.2C458.285 247.092 458.225 246.949 458.222 246.799C458.222 246.436 458.29 237.743 459.139 233.758C460.061 230.132 461.195 226.564 462.535 223.072C462.558 222.997 462.596 222.928 462.646 222.869C462.697 222.81 462.759 222.762 462.829 222.728C462.899 222.694 462.975 222.674 463.053 222.671C463.131 222.668 463.208 222.681 463.281 222.709C463.354 222.737 463.42 222.78 463.475 222.834C463.53 222.889 463.574 222.955 463.603 223.027C463.631 223.099 463.645 223.177 463.642 223.255C463.64 223.333 463.621 223.409 463.588 223.479C462.254 226.916 461.12 230.428 460.192 233.996C459.366 237.89 459.309 246.719 459.298 246.81C459.298 246.951 459.247 247.087 459.152 247.191C459.058 247.296 458.928 247.362 458.788 247.376Z" fill="#263238"/>
<path d="M251.813 345.079C253.387 319.722 250.5 273.616 298.169 279.729C349.256 286.26 334.642 346.007 334.642 346.007L251.813 345.079Z" fill="#263238"/>
<path d="M284.709 329.842C296.2 329.842 305.515 320.527 305.515 309.036C305.515 297.545 296.2 288.23 284.709 288.23C273.218 288.23 263.903 297.545 263.903 309.036C263.903 320.527 273.218 329.842 284.709 329.842Z" fill="white"/>
<path d="M287.449 288.264C277.589 286.588 267.073 293.845 266.02 301.203L305.085 304.802C303.704 296.414 295.26 289.6 287.449 288.264Z" fill="#263238"/>
<path d="M300.637 308.515C300.354 313.96 297.388 318.228 294.014 318.047C290.641 317.866 288.128 313.326 288.354 307.859C288.581 302.391 291.603 298.146 294.977 298.327C298.35 298.508 300.908 303.082 300.637 308.515Z" fill="#263238"/>
<path d="M284.709 330.974C280.37 330.974 276.129 329.688 272.521 327.277C268.913 324.866 266.102 321.44 264.441 317.431C262.781 313.423 262.346 309.012 263.193 304.756C264.039 300.501 266.129 296.592 269.197 293.523C272.265 290.455 276.174 288.366 280.429 287.519C284.685 286.673 289.096 287.107 293.105 288.768C297.113 290.428 300.54 293.24 302.95 296.848C305.361 300.456 306.647 304.697 306.647 309.036C306.642 314.853 304.328 320.429 300.215 324.542C296.102 328.655 290.526 330.968 284.709 330.974ZM284.709 289.373C280.818 289.373 277.013 290.527 273.778 292.69C270.542 294.852 268.02 297.925 266.532 301.521C265.043 305.117 264.654 309.073 265.414 312.89C266.174 316.707 268.049 320.212 270.802 322.963C273.554 325.714 277.061 327.587 280.878 328.345C284.695 329.103 288.651 328.712 292.246 327.221C295.841 325.73 298.913 323.206 301.073 319.97C303.234 316.733 304.386 312.928 304.383 309.036C304.377 303.821 302.302 298.821 298.614 295.135C294.925 291.448 289.924 289.376 284.709 289.373Z" fill="#24184E"/>
<path opacity="0.3" d="M328.835 344.445H328.699C328.626 344.429 328.557 344.399 328.497 344.356C328.436 344.313 328.384 344.258 328.345 344.194C328.306 344.131 328.28 344.06 328.269 343.987C328.258 343.913 328.262 343.838 328.28 343.766C328.28 343.619 331.925 328.269 328.178 312.749C328.142 312.599 328.167 312.441 328.248 312.309C328.329 312.177 328.458 312.083 328.608 312.047C328.758 312.011 328.917 312.036 329.048 312.117C329.18 312.198 329.274 312.327 329.31 312.477C333.125 328.325 329.446 343.879 329.412 344.026C329.378 344.152 329.303 344.262 329.198 344.338C329.092 344.414 328.964 344.452 328.835 344.445Z" fill="white"/>
<path opacity="0.3" d="M325.676 304.236C325.568 304.235 325.462 304.204 325.37 304.146C325.278 304.088 325.204 304.006 325.156 303.908C323.749 300.798 321.945 297.884 319.79 295.237C319.696 295.121 319.652 294.973 319.667 294.824C319.682 294.676 319.754 294.54 319.869 294.445C319.927 294.396 319.994 294.36 320.066 294.338C320.137 294.316 320.213 294.308 320.288 294.316C320.363 294.323 320.435 294.345 320.501 294.381C320.567 294.417 320.626 294.465 320.673 294.524C322.881 297.247 324.734 300.241 326.186 303.433C326.218 303.499 326.237 303.572 326.24 303.646C326.244 303.72 326.233 303.794 326.208 303.864C326.182 303.933 326.143 303.997 326.093 304.051C326.042 304.106 325.982 304.149 325.914 304.18C325.84 304.214 325.759 304.234 325.676 304.236Z" fill="white"/>
<path d="M145.722 464.03H145.304C143.802 463.987 142.379 463.351 141.348 462.26C140.316 461.168 139.76 459.712 139.802 458.211C139.844 456.71 140.481 455.287 141.572 454.255C142.663 453.223 144.119 452.667 145.62 452.71H145.722C148.994 452.71 156.861 448.736 173.321 422.791C173.757 422.102 174.338 421.515 175.023 421.072C175.708 420.628 176.48 420.338 177.288 420.22C178.095 420.103 178.918 420.162 179.701 420.393C180.484 420.623 181.207 421.02 181.822 421.557C194.748 432.669 208.845 442.34 223.864 450.4C224.559 450.716 225.183 451.17 225.699 451.733C226.214 452.297 226.61 452.959 226.862 453.68C227.115 454.4 227.219 455.164 227.169 455.926C227.118 456.688 226.914 457.432 226.569 458.113C226.223 458.794 225.744 459.398 225.159 459.889C224.574 460.379 223.895 460.747 223.165 460.969C222.434 461.19 221.666 461.262 220.907 461.179C220.148 461.096 219.413 460.86 218.748 460.486C204.789 453.069 191.594 444.295 179.354 434.292C165.555 455.064 155.322 464.03 145.722 464.03Z" fill="#263238"/>
<path d="M180.746 420.538H180.26C179.37 420.409 178.568 419.933 178.029 419.213C177.49 418.494 177.258 417.59 177.384 416.701C178.188 411.041 177.192 389.951 170.049 373.537C169.732 372.812 169.679 371.999 169.898 371.238C170.117 370.478 170.595 369.817 171.249 369.372C186.757 358.81 219.789 357.542 221.193 357.497C221.639 357.482 222.083 357.555 222.501 357.712C222.919 357.869 223.301 358.107 223.627 358.412C223.953 358.716 224.216 359.082 224.4 359.489C224.585 359.895 224.687 360.334 224.702 360.78C224.717 361.226 224.644 361.67 224.487 362.088C224.33 362.506 224.092 362.888 223.787 363.214C223.483 363.54 223.117 363.803 222.71 363.987C222.304 364.172 221.865 364.274 221.419 364.289C221.114 364.289 192.236 365.421 177.407 373.571C183.724 389.917 185.161 410.282 184.108 417.651C183.987 418.455 183.58 419.189 182.963 419.719C182.346 420.248 181.56 420.539 180.746 420.538Z" fill="#263238"/>
<path d="M186.452 416.146C184.188 410.814 174 411.414 168.034 415.987C164.842 418.421 160.518 425.768 160.11 428.439C159.974 429.074 159.995 429.732 160.169 430.358C160.344 430.983 160.668 431.556 161.114 432.028C161.559 432.5 162.113 432.857 162.727 433.068C163.341 433.279 163.996 433.338 164.638 433.239C168.543 432.899 173.898 427.228 173.898 427.228C170.332 430.726 174.939 433.194 181.822 428.134C185.58 425.315 188.976 422.111 186.452 416.146Z" fill="#24184E"/>
<path d="M381.156 346.573C381.104 346.585 381.049 346.585 380.997 346.573C380.925 346.554 380.858 346.52 380.799 346.474C380.74 346.427 380.691 346.37 380.655 346.304C380.619 346.239 380.597 346.167 380.59 346.092C380.582 346.018 380.59 345.943 380.612 345.871C382.118 340.619 383.759 337.415 385.921 335.683C385.583 334.466 385.646 333.171 386.103 331.993C386.63 330.617 387.561 329.434 388.774 328.597C388.444 328.241 388.21 327.807 388.093 327.336C387.977 326.865 387.981 326.372 388.106 325.903C388.516 324.485 389.364 323.233 390.529 322.326C390.109 321.856 389.879 321.247 389.883 320.616C389.883 317.22 396.121 312.104 403.196 311.13C403.346 311.109 403.498 311.149 403.619 311.24C403.74 311.331 403.82 311.467 403.841 311.617C403.862 311.767 403.823 311.919 403.731 312.04C403.64 312.161 403.504 312.241 403.354 312.262C396.63 313.179 390.993 318.047 391.015 320.616C391.013 321 391.159 321.369 391.423 321.647C392.946 320.614 394.659 319.895 396.463 319.531C398.266 319.168 400.124 319.167 401.928 319.53C405.403 320.198 406.818 320.933 406.66 321.986C406.343 323.967 398.951 324.386 393.993 323.797C393.104 323.717 392.24 323.467 391.446 323.062C390.378 323.821 389.584 324.905 389.182 326.152C389.085 326.482 389.085 326.833 389.184 327.162C389.282 327.492 389.474 327.786 389.736 328.008C391.842 326.876 394.796 326.469 398.702 327.329C403.83 328.461 404.022 329.084 404.147 329.457C404.187 329.589 404.19 329.73 404.156 329.863C404.122 329.997 404.052 330.119 403.954 330.216C402.879 331.348 395.011 330.816 391.061 329.842C390.584 329.733 390.123 329.562 389.691 329.333C388.522 330.043 387.622 331.123 387.133 332.401C386.806 333.227 386.716 334.129 386.872 335.004C387.074 334.884 387.282 334.774 387.495 334.676C389.838 333.544 392.668 333.748 396.166 335.242C398.43 336.227 399.562 337.11 399.675 338.004C399.68 338.233 399.623 338.46 399.509 338.659C399.396 338.859 399.23 339.023 399.03 339.136C397.298 340.268 391.253 340.109 388.106 338.434C387.383 338.041 386.78 337.458 386.363 336.747C384.518 338.445 383.024 341.468 381.665 346.211C381.624 346.314 381.554 346.403 381.464 346.467C381.373 346.531 381.266 346.568 381.156 346.573ZM387.291 336.012C387.606 336.597 388.087 337.077 388.672 337.393C391.231 338.751 396.257 339.057 398.136 338.298C398.521 338.14 398.577 338.015 398.577 338.015C398.577 338.015 398.521 337.381 395.747 336.193C392.578 334.834 390.087 334.642 388.016 335.604C387.766 335.724 387.524 335.861 387.291 336.012ZM391.072 328.574L391.355 328.654C395.041 329.503 398.835 329.789 402.607 329.503C401.269 329.006 399.89 328.628 398.487 328.371C396.049 327.71 393.47 327.781 391.072 328.574ZM392.498 322.213C393.021 322.4 393.565 322.522 394.117 322.575C399.777 323.243 404.747 322.462 405.437 321.748C405.245 321.579 404.486 321.092 401.679 320.56C398.52 319.93 395.239 320.52 392.498 322.213Z" fill="#263238"/>
<path d="M233.792 462.139C234.539 461.901 234.29 461.177 233.452 461.177H218.125C188.942 458.086 168.555 462.23 181.403 463.203C194.251 464.177 180.497 463.973 171.113 467.527C161.729 471.082 240.901 471.976 248.089 467.527C254.7 463.43 223.445 465.456 233.792 462.139Z" fill="#263238"/>
<path d="M343.528 466.656L210.178 462.23L204.643 332.932L362.115 336.453L343.528 466.656Z" fill="#24184E"/>
<path d="M251.813 464.177C251.671 464.177 251.533 464.124 251.428 464.027C251.323 463.931 251.259 463.798 251.247 463.656L240.561 333.793C240.552 333.643 240.601 333.496 240.698 333.382C240.795 333.268 240.933 333.196 241.082 333.182C241.231 333.175 241.377 333.225 241.49 333.322C241.604 333.418 241.676 333.554 241.693 333.702L252.436 463.565C252.442 463.64 252.434 463.715 252.411 463.786C252.388 463.857 252.351 463.923 252.303 463.979C252.254 464.036 252.195 464.083 252.129 464.117C252.062 464.151 251.99 464.171 251.915 464.177H251.813Z" fill="#263238"/>
<path d="M343.528 466.656L379.367 461.2L390.653 340.97L362.115 336.453L343.528 466.656Z" fill="#24184E"/>
<path opacity="0.2" d="M343.528 466.656L379.367 461.2L390.653 340.97L362.115 336.453L343.528 466.656Z" fill="black"/>
<path d="M221.566 437.314L218.284 360.485C218.203 358.587 218.512 356.693 219.192 354.919C219.872 353.146 220.909 351.53 222.239 350.173C223.568 348.816 225.162 347.746 226.921 347.03C228.681 346.313 230.568 345.965 232.468 346.007L332.151 348.271C334.114 348.315 336.045 348.775 337.818 349.621C339.59 350.466 341.162 351.677 342.432 353.175C343.702 354.672 344.64 356.422 345.184 358.309C345.728 360.195 345.866 362.175 345.588 364.119L334.54 441.48C334.062 444.868 332.35 447.961 329.733 450.165C327.115 452.369 323.776 453.529 320.356 453.423L235.015 450.593C231.511 450.485 228.178 449.056 225.684 446.593C223.19 444.131 221.719 440.816 221.566 437.314Z" fill="#263238"/>
<path d="M232.343 369.587L247.761 370.073L247.636 374.047L237.98 373.741L237.89 376.707L246.844 376.99L246.719 380.793L237.765 380.499L237.652 384.178L247.58 384.495L247.444 388.706L231.743 388.208L232.343 369.587Z" fill="white"/>
<path d="M250.625 388.808L251.213 370.187L260.813 370.492C262.189 370.485 263.559 370.684 264.877 371.081C265.811 371.394 266.61 372.017 267.141 372.847C267.534 373.451 267.799 374.13 267.918 374.841C268.038 375.553 268.01 376.281 267.836 376.981C267.662 377.681 267.345 378.337 266.906 378.909C266.467 379.482 265.915 379.957 265.284 380.307C264.641 380.638 263.949 380.867 263.235 380.986C263.762 381.155 264.261 381.399 264.718 381.71C265.048 382.017 265.345 382.359 265.601 382.729C265.893 383.082 266.15 383.461 266.371 383.861L268.986 389.351L262.488 389.136L259.59 383.352C259.36 382.799 259.021 382.299 258.594 381.88C258.188 381.586 257.703 381.421 257.202 381.405H256.692L256.455 388.955L250.625 388.808ZM256.76 377.918L259.183 377.997C259.697 377.966 260.208 377.894 260.711 377.782C261.09 377.725 261.433 377.527 261.673 377.228C261.918 376.926 262.057 376.552 262.069 376.164C262.091 375.905 262.054 375.644 261.962 375.402C261.87 375.159 261.725 374.939 261.537 374.76C260.906 374.352 260.16 374.157 259.409 374.205L256.873 374.126L256.76 377.918Z" fill="white"/>
<path d="M270.865 389.408L271.454 370.787L281.042 371.092C282.418 371.084 283.788 371.283 285.106 371.681C286.042 371.99 286.841 372.614 287.37 373.447C287.944 374.354 288.214 375.421 288.139 376.492C288.143 377.395 287.901 378.283 287.441 379.06C286.98 379.837 286.318 380.475 285.524 380.907C284.88 381.236 284.189 381.465 283.475 381.586C283.999 381.755 284.494 381.999 284.947 382.31C285.285 382.608 285.586 382.947 285.841 383.318C286.131 383.672 286.388 384.051 286.611 384.45L289.226 389.929L282.728 389.725L279.83 383.94C279.599 383.389 279.26 382.889 278.834 382.469C278.43 382.163 277.937 381.997 277.431 381.993H276.932L276.683 389.555L270.865 389.408ZM276.989 378.518L279.423 378.586C279.938 378.567 280.449 378.498 280.951 378.382C281.327 378.326 281.668 378.128 281.902 377.828C282.156 377.531 282.296 377.154 282.298 376.764C282.323 376.505 282.289 376.245 282.198 376.002C282.108 375.759 281.964 375.54 281.777 375.36C281.146 374.942 280.393 374.746 279.638 374.805L277.114 374.726L276.989 378.518Z" fill="white"/>
<path d="M290.154 380.76C290.067 379.46 290.268 378.157 290.744 376.945C291.22 375.733 291.959 374.641 292.907 373.748C293.855 372.855 294.989 372.183 296.228 371.781C297.466 371.379 298.779 371.255 300.071 371.421C301.374 371.377 302.673 371.597 303.891 372.065C305.108 372.534 306.219 373.242 307.157 374.149C307.994 375.113 308.627 376.237 309.016 377.454C309.405 378.67 309.543 379.953 309.421 381.224C309.43 383.073 308.995 384.898 308.153 386.544C307.39 387.891 306.249 388.985 304.87 389.691C303.246 390.468 301.448 390.811 299.652 390.687C297.861 390.702 296.089 390.316 294.467 389.555C293.086 388.806 291.96 387.663 291.23 386.272C290.374 384.568 290.002 382.661 290.154 380.76ZM295.905 380.963C295.735 382.39 296.059 383.832 296.822 385.05C297.179 385.448 297.612 385.771 298.096 385.998C298.581 386.225 299.106 386.353 299.64 386.373C300.175 386.393 300.708 386.305 301.208 386.115C301.707 385.924 302.164 385.635 302.55 385.265C303.389 383.994 303.787 382.483 303.682 380.963C303.834 379.599 303.501 378.225 302.742 377.081C302.399 376.685 301.975 376.368 301.498 376.151C301.021 375.934 300.504 375.823 299.98 375.824C299.452 375.786 298.922 375.868 298.43 376.064C297.937 376.26 297.496 376.565 297.139 376.956C296.281 378.112 295.846 379.526 295.905 380.963Z" fill="white"/>
<path d="M312.33 390.778L312.919 372.145L322.507 372.451C323.883 372.448 325.252 372.647 326.571 373.039C327.502 373.357 328.3 373.979 328.835 374.805C329.406 375.714 329.676 376.779 329.604 377.85C329.61 378.756 329.369 379.645 328.909 380.425C328.448 381.204 327.785 381.844 326.99 382.276C326.342 382.597 325.652 382.822 324.941 382.944C325.464 383.117 325.96 383.364 326.412 383.68C326.751 383.978 327.051 384.316 327.307 384.688C327.598 385.04 327.856 385.419 328.076 385.82L330.691 391.31L324.194 391.106L321.296 385.31C321.065 384.761 320.726 384.265 320.299 383.85C319.893 383.546 319.403 383.376 318.896 383.363H318.398L318.149 390.925L312.33 390.778ZM318.454 379.877L320.888 379.956C321.403 379.936 321.914 379.868 322.416 379.752C322.791 379.692 323.13 379.494 323.367 379.197C323.634 378.882 323.775 378.479 323.763 378.065C323.788 377.809 323.754 377.55 323.663 377.309C323.573 377.068 323.429 376.85 323.243 376.673C322.611 376.255 321.858 376.06 321.103 376.118L318.579 376.039L318.454 379.877Z" fill="white"/>
<path d="M321.488 422.417C321.276 422.421 321.065 422.38 320.869 422.296C320.674 422.212 320.499 422.087 320.356 421.93L310.666 411.324L300.206 420.878C299.917 421.143 299.533 421.283 299.141 421.266C298.748 421.249 298.378 421.077 298.112 420.787L288.422 410.18L277.963 419.734C277.673 420 277.289 420.139 276.897 420.122C276.504 420.105 276.134 419.933 275.868 419.644L266.167 409.037L255.719 418.591C255.566 418.729 255.387 418.834 255.193 418.901C254.998 418.967 254.792 418.992 254.587 418.976C254.194 418.952 253.824 418.778 253.557 418.489L243.867 407.894L233.418 417.436C233.127 417.703 232.742 417.842 232.347 417.825C231.952 417.808 231.581 417.636 231.313 417.346C231.181 417.202 231.078 417.034 231.012 416.85C230.945 416.667 230.916 416.472 230.926 416.277C230.935 416.082 230.983 415.891 231.067 415.715C231.151 415.539 231.269 415.382 231.415 415.252L242.961 404.69C243.253 404.424 243.638 404.284 244.033 404.301C244.427 404.318 244.799 404.49 245.067 404.781L254.757 415.387L265.205 405.833C265.501 405.573 265.886 405.435 266.28 405.448C266.674 405.47 267.044 405.644 267.31 405.935L277 416.542L287.46 406.988C287.603 406.855 287.771 406.752 287.954 406.684C288.137 406.617 288.331 406.587 288.526 406.595C288.721 406.604 288.912 406.651 289.089 406.734C289.265 406.817 289.423 406.934 289.554 407.079L299.244 417.685L309.704 408.131C309.994 407.866 310.377 407.726 310.77 407.743C311.162 407.76 311.532 407.932 311.798 408.222L322.62 419.972C322.813 420.188 322.94 420.456 322.983 420.743C323.027 421.029 322.987 421.323 322.867 421.587C322.747 421.851 322.552 422.074 322.308 422.23C322.063 422.385 321.778 422.466 321.488 422.462V422.417Z" fill="white"/>
<path d="M142.349 469.406L135.263 466.022L128.946 435.265L132.376 431.496L142.349 469.406Z" fill="#24184E"/>
<path d="M142.349 469.406L151.756 463.905L143.696 438.571L132.376 431.496L142.349 469.406Z" fill="#24184E"/>
<path opacity="0.2" d="M142.349 469.406L151.756 463.905L143.696 438.571L132.376 431.496L142.349 469.406Z" fill="black"/>
<path d="M296.584 474.998H295.803C294.302 474.958 292.878 474.323 291.845 473.233C290.813 472.143 290.255 470.687 290.296 469.186C290.336 467.685 290.971 466.261 292.062 465.228C293.152 464.195 294.607 463.638 296.109 463.678C304.825 463.961 323.277 458.607 333.827 448.374C334.464 447.749 335.24 447.283 336.091 447.015C353.965 441.65 360.61 452.483 360.882 452.947L351.146 458.709C351.181 458.781 351.222 458.849 351.271 458.913C351.169 458.766 348.633 455.517 340.573 457.509C327.34 469.576 307.032 474.998 296.584 474.998Z" fill="#263238"/>
<path d="M295.894 482.515L275.28 481.225L273.661 443.212L301.361 444.242L295.894 482.515Z" fill="#24184E"/>
<path d="M295.893 482.515L300.716 477.715L303.704 454.023L301.361 444.242L295.893 482.515Z" fill="#24184E"/>
<path opacity="0.2" d="M295.893 482.515L300.716 477.715L303.704 454.023L301.361 444.242L295.893 482.515Z" fill="black"/>
<path d="M415.342 468.127C414.602 468.127 413.883 467.884 413.293 467.437C401.52 458.494 385.616 442.612 379.514 427.296C379.423 427.074 379.358 426.843 379.322 426.606C376.345 408.901 373.503 371.647 373.379 370.074C373.345 369.628 373.4 369.179 373.54 368.755C373.68 368.33 373.902 367.937 374.193 367.598C374.783 366.913 375.619 366.49 376.52 366.423C377.421 366.355 378.311 366.648 378.996 367.237C379.681 367.826 380.103 368.663 380.171 369.564C380.171 369.938 383.08 407.554 385.978 425.111C392.068 440.008 408.618 455.302 417.425 462.026C417.992 462.456 418.41 463.054 418.619 463.734C418.828 464.414 418.818 465.143 418.59 465.818C418.362 466.492 417.928 467.078 417.35 467.492C416.771 467.907 416.077 468.129 415.365 468.127H415.342Z" fill="#263238"/>
<path d="M431.043 469.837C428.417 469.837 425.44 468.648 422.191 466.305C421.461 465.776 420.971 464.98 420.829 464.09C420.687 463.201 420.904 462.291 421.432 461.562C421.961 460.832 422.757 460.342 423.647 460.2C424.536 460.058 425.446 460.275 426.175 460.803C428.983 462.83 430.511 463.067 431.043 463.067C431.944 463.067 432.807 463.425 433.444 464.062C434.081 464.699 434.439 465.563 434.439 466.463C434.439 467.364 434.081 468.228 433.444 468.865C432.807 469.501 431.944 469.859 431.043 469.859V469.837Z" fill="#263238"/>
<path d="M423.142 466.203C426.775 455.415 441.672 457.543 446.812 459.151C451.202 460.425 455.412 462.251 459.343 464.584C462.116 466.395 462.162 469.44 458.46 471.172C453.932 473.301 442.431 471.41 442.431 471.41C448.363 474.002 442.431 478.202 432.005 474.082C428.62 472.746 421.862 470.165 423.142 466.203Z" fill="#24184E"/>
<path d="M386.986 374.692C385.638 383.861 378.043 390.619 371.862 389.714C365.681 388.808 365.432 380.658 366.779 371.443C368.126 362.229 370.572 355.595 376.752 356.501C382.933 357.406 388.333 365.557 386.986 374.692Z" fill="#263238"/>
<path d="M237.584 338.128C238.097 338.128 238.512 337.713 238.512 337.2C238.512 336.688 238.097 336.272 237.584 336.272C237.072 336.272 236.656 336.688 236.656 337.2C236.656 337.713 237.072 338.128 237.584 338.128Z" fill="#263238"/>
<path d="M247.014 343.879C247.014 344.063 246.959 344.242 246.857 344.395C246.755 344.547 246.61 344.666 246.441 344.736C246.271 344.807 246.084 344.825 245.904 344.789C245.724 344.754 245.559 344.665 245.429 344.535C245.299 344.405 245.211 344.24 245.175 344.06C245.139 343.88 245.158 343.693 245.228 343.524C245.298 343.354 245.417 343.209 245.57 343.107C245.722 343.005 245.902 342.951 246.085 342.951C246.332 342.951 246.568 343.048 246.742 343.223C246.916 343.397 247.014 343.633 247.014 343.879Z" fill="#263238"/>
<path d="M248.055 453.57C248.055 453.753 248.001 453.933 247.899 454.085C247.797 454.238 247.652 454.357 247.482 454.427C247.313 454.498 247.126 454.516 246.946 454.48C246.766 454.444 246.6 454.356 246.471 454.226C246.341 454.096 246.252 453.931 246.217 453.751C246.181 453.571 246.199 453.384 246.269 453.215C246.34 453.045 246.459 452.9 246.611 452.798C246.764 452.696 246.943 452.642 247.127 452.642C247.373 452.642 247.609 452.739 247.783 452.913C247.957 453.087 248.055 453.324 248.055 453.57Z" fill="#263238"/>
<path d="M256.556 460.26C256.556 460.444 256.502 460.623 256.4 460.776C256.298 460.928 256.153 461.047 255.983 461.118C255.814 461.188 255.627 461.206 255.447 461.17C255.267 461.135 255.102 461.046 254.972 460.916C254.842 460.786 254.754 460.621 254.718 460.441C254.682 460.261 254.7 460.074 254.771 459.905C254.841 459.735 254.96 459.59 255.113 459.488C255.265 459.386 255.445 459.332 255.628 459.332C255.874 459.332 256.111 459.429 256.285 459.604C256.459 459.778 256.556 460.014 256.556 460.26Z" fill="#263238"/>
<path d="M93.4013 471.387C91.7716 471.311 90.1799 470.87 88.7437 470.096C87.3075 469.322 86.0636 468.235 85.1038 466.916C85.0567 466.855 85.0225 466.786 85.0032 466.711C84.9839 466.637 84.98 466.56 84.9916 466.484C85.0032 466.408 85.0302 466.335 85.0708 466.27C85.1115 466.205 85.165 466.148 85.228 466.105C85.2911 466.061 85.3624 466.03 85.4377 466.015C85.5129 465.999 85.5905 465.999 85.6657 466.015C85.7409 466.031 85.8122 466.061 85.8752 466.105C85.9381 466.149 85.9915 466.206 86.032 466.271C88.1488 469.327 92.824 470.946 94.8616 469.984C95.0657 469.897 95.2475 469.766 95.3936 469.599C94.3641 469.146 93.4619 468.446 92.767 467.562C92.072 466.677 91.6056 465.635 91.409 464.528C91.1486 463.09 90.9449 461.132 92.1222 460.883C93.7522 460.52 95.8804 464.448 96.6502 467.425C96.7896 467.918 96.8394 468.432 96.7973 468.942C97.4502 469.137 98.137 469.191 98.8123 469.101C99.1166 469.077 99.4127 468.991 99.6816 468.847C99.9506 468.702 100.187 468.504 100.374 468.263C99.6294 467.701 99.0115 466.988 98.5609 466.171C98.1103 465.353 97.8372 464.45 97.7595 463.52C97.3294 460.418 97.6576 459.886 97.9972 459.615C98.1073 459.53 98.2386 459.478 98.3765 459.464C98.5145 459.45 98.6536 459.475 98.7783 459.535C99.9896 460.045 101.45 464.437 101.733 466.927C101.767 467.187 101.767 467.449 101.733 467.708C102.221 467.896 102.738 467.996 103.261 468.003C104.221 468.04 105.17 467.792 105.989 467.29C105.831 467.188 105.684 467.075 105.536 466.961C104.404 465.954 103.884 464.346 104.087 462.06C104.246 460.283 104.642 459.309 105.355 459.003C105.585 458.911 105.837 458.888 106.08 458.936C106.324 458.984 106.548 459.102 106.725 459.275C107.489 460.119 108.06 461.119 108.398 462.206C108.737 463.293 108.834 464.441 108.683 465.569C108.585 466.039 108.388 466.483 108.106 466.871C110.189 467.233 113.109 466.644 115.634 466.022C115.708 466.004 115.785 466.001 115.861 466.013C115.936 466.025 116.009 466.052 116.074 466.092C116.139 466.131 116.196 466.184 116.241 466.246C116.285 466.308 116.318 466.378 116.336 466.452C116.353 466.526 116.357 466.603 116.345 466.679C116.333 466.754 116.306 466.827 116.266 466.892C116.226 466.957 116.174 467.014 116.112 467.059C116.05 467.104 115.98 467.136 115.905 467.154C112.838 467.912 109.532 468.535 107.2 467.856C106.062 468.721 104.668 469.183 103.238 469.169C102.604 469.16 101.976 469.042 101.382 468.818C101.119 469.225 100.765 469.566 100.349 469.816C99.9331 470.065 99.4654 470.215 98.9821 470.255C98.1312 470.365 97.2667 470.292 96.4464 470.04C96.1823 470.485 95.7868 470.837 95.3144 471.048C94.7072 471.293 94.0557 471.408 93.4013 471.387ZM92.4278 462.015C92.2712 462.784 92.3023 463.58 92.5184 464.335C92.678 465.24 93.0536 466.094 93.6133 466.823C94.1729 467.552 94.9001 468.135 95.7332 468.524C95.7174 468.255 95.6718 467.989 95.5974 467.731C94.7144 464.494 93.0164 462.264 92.4278 462.015ZM98.733 461.03C98.7404 461.811 98.8047 462.59 98.9255 463.362C99.0503 464.742 99.6599 466.033 100.646 467.007C100.368 464.917 99.7198 462.893 98.733 461.03ZM105.853 460.045C105.853 460.045 105.423 460.26 105.265 462.15C105.106 464.041 105.434 465.343 106.317 466.101C106.526 466.27 106.754 466.415 106.997 466.531C107.294 466.213 107.505 465.823 107.608 465.399C107.81 463.617 107.328 461.825 106.261 460.384C106.023 460.09 105.887 460.045 105.853 460.045Z" fill="#263238"/>
<path d="M259.081 479.945L262.149 474.625L259.081 469.305H255.798L257.655 474.625L255.798 479.945H259.081Z" fill="#263238"/>
<path d="M256.013 477.398C255.635 477.423 255.255 477.369 254.899 477.241C254.542 477.113 254.215 476.913 253.939 476.653C253.662 476.394 253.442 476.081 253.291 475.733C253.14 475.385 253.063 475.01 253.063 474.631C253.063 474.252 253.14 473.876 253.291 473.529C253.442 473.181 253.662 472.867 253.939 472.608C254.215 472.349 254.542 472.149 254.899 472.02C255.255 471.892 255.635 471.839 256.013 471.863L250.806 470.821L249.414 475.033L251.745 478.587L256.013 477.398Z" fill="#263238"/>
<path d="M256.466 469.305H250.319L247.251 474.625L250.319 479.945H256.466L259.534 474.625L256.466 469.305ZM253.398 477.398C252.849 477.401 252.312 477.24 251.854 476.936C251.397 476.633 251.039 476.201 250.828 475.694C250.616 475.188 250.56 474.63 250.665 474.091C250.771 473.552 251.034 473.057 251.422 472.668C251.809 472.279 252.303 472.014 252.842 471.906C253.38 471.798 253.938 471.852 254.446 472.062C254.953 472.271 255.387 472.627 255.692 473.083C255.997 473.539 256.16 474.076 256.16 474.625C256.16 475.359 255.87 476.062 255.352 476.582C254.834 477.102 254.132 477.395 253.398 477.398Z" fill="#24184E"/>
<path d="M473.052 468.942L470.776 464.992L473.052 461.041H475.485L474.116 464.992L475.485 468.942H473.052Z" fill="#24184E"/>
<path d="M475.327 467.052C475.609 467.073 475.893 467.035 476.161 466.942C476.428 466.848 476.674 466.7 476.881 466.507C477.089 466.314 477.255 466.081 477.368 465.821C477.481 465.561 477.54 465.281 477.54 464.997C477.54 464.714 477.481 464.434 477.368 464.174C477.255 463.914 477.089 463.68 476.881 463.488C476.674 463.295 476.428 463.147 476.161 463.053C475.893 462.959 475.609 462.922 475.327 462.943L479.198 462.173L480.228 465.297L478.508 467.935L475.327 467.052Z" fill="#24184E"/>
<path d="M474.998 461.041H479.526L481.79 464.992L479.526 468.942H474.998L472.734 464.992L474.998 461.041ZM477.262 467.052C477.67 467.054 478.07 466.935 478.41 466.71C478.75 466.485 479.016 466.164 479.174 465.788C479.332 465.412 479.374 464.997 479.296 464.597C479.218 464.196 479.022 463.828 478.735 463.539C478.447 463.25 478.08 463.052 477.68 462.972C477.28 462.891 476.865 462.932 476.488 463.087C476.111 463.243 475.788 463.507 475.562 463.846C475.335 464.185 475.214 464.584 475.214 464.992C475.212 465.263 475.264 465.531 475.367 465.782C475.47 466.032 475.622 466.26 475.814 466.452C476.005 466.643 476.233 466.795 476.484 466.898C476.734 467.001 477.003 467.053 477.274 467.052H477.262Z" fill="#263238"/>
<path d="M388.276 474.195H393.393C394.033 474.192 394.646 473.935 395.098 473.481C395.55 473.027 395.804 472.413 395.804 471.772C395.804 471.132 395.55 470.517 395.098 470.063C394.646 469.609 394.033 469.353 393.393 469.35H388.276C387.634 469.35 387.017 469.605 386.563 470.059C386.109 470.514 385.854 471.13 385.854 471.772C385.854 472.415 386.109 473.031 386.563 473.485C387.017 473.94 387.634 474.195 388.276 474.195Z" fill="#263238"/>
<path d="M380.046 469.621C380.521 468.758 381.238 468.052 382.11 467.591C382.981 467.13 383.968 466.935 384.949 467.028C385.93 467.121 386.862 467.5 387.631 468.117C388.399 468.734 388.97 469.562 389.274 470.499C389.577 471.437 389.6 472.443 389.338 473.393C389.077 474.343 388.543 475.196 387.803 475.847C387.062 476.497 386.148 476.917 385.172 477.054C384.196 477.191 383.201 477.039 382.31 476.617C381.086 475.986 380.161 474.896 379.737 473.586C379.313 472.275 379.424 470.85 380.046 469.621Z" fill="#24184E"/>
<path d="M381.427 476.616L382.83 477.277L387.705 466.936L386.302 466.274L381.427 476.616Z" fill="#263238"/>
</svg>
