<?xml version="1.0" encoding="UTF-8"?>
<svg id="Layer_2" data-name="Layer 2" xmlns="http://www.w3.org/2000/svg" viewBox="0 0 1012.62 900">
  <defs>
    <style>
      .cls-1 {
        fill: #fff;
      }

      .cls-2 {
        fill: #3b2986;
      }
    </style>
  </defs>
  <g id="BACKGROUND">
    <g>
      <g>
        <path class="cls-2" d="m1011.4,0H0v308.28c2.31,33.48,32.91,62.55,66.46,63.14,28.71.51,56.62-17.09,84.76-11.37,23.53,4.78,42.11,27.47,42.16,51.47.05,21.51-12.86,40.78-26.65,57.29-13.79,16.51-29.37,32.44-36.53,52.73-7.17,20.28-2.79,46.75,16.09,57.05,27.88,15.21,60.04-13.53,91.8-13.75,19.38,5.29,28.81,32.45,15.55,47.54-8.69,9.89-22.58,12.86-35.26,16.43-22.1,6.23-45.03,17.65-54.16,38.71-4.37,10.08-5.07,21.44-3.74,32.34,3.12,25.61,17.64,49.61,38.87,64.27,27.19,18.77,61.87,21.44,94.07,28.85,62.63,14.41,123.24,58.29,165.15,107,15.95-7.83,29.52-25.91,34.61-42.93,4.38-14.64,8.76-29.28,13.14-43.93,4.38,14.64,8.76,29.28,13.14,43.93,5.09,17.02,18.66,35.1,34.61,42.93,41.92-48.71,102.53-92.59,165.15-107,32.2-7.41,66.88-10.08,94.07-28.85,21.23-14.66,35.74-38.66,38.87-64.27,1.33-10.9.62-22.27-3.74-32.34-9.13-21.06-32.07-32.48-54.16-38.71-12.67-3.57-26.56-6.54-35.26-16.43-13.26-15.09-3.83-42.25,15.55-47.54,31.76.23,63.92,28.96,91.8,13.75,18.89-10.3,23.26-36.76,16.09-57.05-7.17-20.28-22.74-36.22-36.53-52.73-13.79-16.51-26.7-35.78-26.65-57.29.06-24.01,18.64-46.69,42.16-51.47,28.14-5.72,56.05,11.88,84.76,11.37,33.55-.59,64.15-29.67,66.46-63.14l-1.23-308.28Z"/>
        <g>
          <path class="cls-2" d="m847.84,407.42c-3.66,11.77-.97,24.93,5.44,35.46,6.41,10.53,16.24,18.63,26.91,24.79,2.76,1.59,5.77,3.11,8.95,2.91,5.43-.34,9.38-5.73,10.21-11.1.83-5.37-.62-10.8-1.63-16.14-1-5.34-1.49-11.16,1.06-15.96,4.01-7.54,13.75-9.69,22.28-10.03,8.54-.34,17.8.11,24.75-4.86,3.24-2.32,5.8-6.13,5.26-10.07-.67-4.94-5.63-7.99-10.17-10.05-26.38-11.92-81.25-22.91-93.06,15.04Z"/>
          <path class="cls-2" d="m779.23,604.96c8.4,10.28,21.51,16.55,34.79,16.65,1.33,0,2.68-.05,3.93-.51,5.2-1.94,5.45-9.34,3.4-14.5-4.87-12.23-19.8-24.34-32.83-26.93-16.38-3.25-17.76,14.93-9.29,25.29Z"/>
          <path class="cls-2" d="m167.26,407.42c3.66,11.77.97,24.93-5.44,35.46-6.41,10.53-16.24,18.63-26.91,24.79-2.76,1.59-5.77,3.11-8.95,2.91-5.43-.34-9.38-5.73-10.21-11.1-.84-5.37.62-10.8,1.63-16.14,1-5.34,1.49-11.16-1.06-15.96-4.01-7.54-13.75-9.69-22.28-10.03-8.54-.34-17.8.11-24.75-4.86-3.24-2.32-5.8-6.13-5.26-10.07.67-4.94,5.63-7.99,10.17-10.05,26.38-11.92,81.25-22.91,93.06,15.04Z"/>
          <path class="cls-2" d="m235.87,604.96c-8.4,10.28-21.51,16.55-34.79,16.65-1.33,0-2.68-.05-3.93-.51-5.2-1.94-5.45-9.34-3.4-14.5,4.87-12.23,19.8-24.34,32.83-26.93,16.38-3.25,17.76,14.93,9.29,25.29Z"/>
          <path class="cls-2" d="m113.8,487.44l-.34.1,2.19.29-.09-.05c-.37-.24-.77-.36-1.2-.38-.43-.1-.86-.08-1.29.06l-.77.33c-.49.29-.87.67-1.16,1.16l-.23.3s-.04.05-.06.07c-.17.22-.28.48-.33.78-.13.42-.15.84-.06,1.26.03.21.03.34.08.51.26,1,1.1,1.84,2.1,2.1.03,0,.06.02.09.02.56.15,1.12.15,1.68,0,.29-.05.55-.16.78-.33.02-.02.05-.04.07-.06l.3-.23c.38-.2.68-.48.91-.83.29-.31.48-.68.58-1.1l.12-.86c0-.58-.15-1.13-.44-1.63l-.05-.09.29,2.19.1-.34c.26-.91-.02-1.91-.68-2.58s-1.67-.94-2.58-.68h0Z"/>
          <path class="cls-2" d="m104.82,517.73c-4.79,7.57-6.32,16.96-6.56,25.78s1.03,17.91,4.14,26.2c6.05,16.12,18.38,29.07,34.29,35.71,4.15,1.73,8.47,2.96,12.92,3.6,2.39.34,4.8.64,7.21.52s5-.08,7-1.41c1.25-.83.92-2.48-.39-3-1.87-.74-3.88-.5-5.86-.64s-3.86-.28-5.77-.54c-3.7-.51-7.35-1.48-10.86-2.74-7.04-2.52-13.57-6.59-19.03-11.68-11.86-11.05-18.08-26.89-18.64-42.95-.17-4.75.24-9.43.8-14.14s1.65-9.35,2.38-14.04c.15-.96-1.06-1.59-1.63-.69h0Z"/>
          <path class="cls-2" d="m48.09,392.87c-.85-1.48-2.22-2.15-3.65-2.97s-2.95-1.68-4.39-2.56c-2.75-1.69-5.45-3.5-7.93-5.56-5.04-4.18-9.45-9.16-12.94-14.7-.97-1.54-1.92-3.1-2.84-4.68-.98-1.69-2.15-3.23-3.31-4.8-.82-1.11-3.16-.95-2.97.8.4,3.69,1.54,7.05,3.43,10.25s3.9,6.02,6.21,8.74c4.57,5.37,10.23,10.25,16.44,13.64,1.78.97,3.61,1.9,5.51,2.6s3.81,1.53,5.79.85c.67-.23,1.03-.97.66-1.62h0Z"/>
          <path class="cls-2" d="m146.29,647.07c-5.82,5.29-9.62,12.67-11.86,20.13s-3.2,15.96-3.17,24.07.98,16.52,2.57,24.62c1.77,9.05,4.21,17.99,8.06,26.4,6.9,15.03,18.97,26.44,33.23,34.49,14.4,8.14,30.37,13.11,46.27,17.4,9.69,2.62,19.47,4.9,29.31,6.9,9.86,2,19.87,3.98,29.91,4.83,2.48.21,4.97.34,7.46.48,2.06.12,2.55-3.22.49-3.64-19.18-3.89-38.48-7-57.47-11.76-15.98-4.01-32.13-8.3-47.03-15.48-13.67-6.59-26.32-15.82-34.27-28.99-4.55-7.54-7.47-15.9-9.59-24.41-1.97-7.9-3.43-15.98-4.1-24.09-1.29-15.66.72-31.36,8.05-45.41.89-1.7,1.84-3.38,2.81-5.04.25-.42-.31-.83-.66-.51h0Z"/>
          <path class="cls-2" d="m899.8,490.7l.1.34.29-2.19-.05.09c-.24.37-.36.77-.38,1.2-.1.43-.08.86.06,1.29l.33.77c.29.49.67.87,1.16,1.16l.3.23s.05.04.07.06c.22.17.48.28.78.33.42.13.84.15,1.26.06.21-.03.34-.03.51-.08,1-.26,1.84-1.1,2.1-2.1,0-.03.02-.06.02-.09.15-.56.15-1.12,0-1.68-.05-.29-.16-.55-.33-.78-.02-.02-.04-.05-.06-.07l-.23-.3c-.2-.38-.48-.68-.83-.91-.31-.29-.68-.48-1.1-.58l-.86-.12c-.58,0-1.13.15-1.63.44l-.09.05,2.19-.29-.34-.1c-.91-.26-1.91.02-2.58.68s-.94,1.67-.68,2.58h0Z"/>
          <path class="cls-2" d="m910.4,518.41c1.3,8.36,3.16,16.58,3.22,25.1s-1.39,16.54-4.28,24.37c-5.34,14.49-16.7,26.44-30.97,32.4-3.9,1.63-8.03,2.82-12.2,3.51-1.98.33-3.97.45-5.96.64-2.25.21-4.68-.11-6.79.72-1.32.52-1.63,2.17-.39,3,1.83,1.22,4.1,1.23,6.25,1.36,2,.13,3.96.02,5.95-.21,4.14-.49,8.21-1.37,12.14-2.78,7.84-2.81,15.04-7.21,21.16-12.85,13.06-12.04,19.75-29.26,20.08-46.86.18-9.84-1.22-20.62-6.57-29.07-.57-.9-1.78-.28-1.63.69h0Z"/>
          <path class="cls-2" d="m969.42,394.49c1.76.61,3.4,0,5.08-.59s3.41-1.39,5.05-2.24c3.17-1.65,6.1-3.69,8.9-5.9,5.64-4.45,10.45-9.86,14.24-15.97,1.04-1.67,1.9-3.4,2.67-5.21.85-1.99,1.21-4.03,1.44-6.17.19-1.75-2.15-1.91-2.97-.8-3.9,5.28-6.85,11.14-11.07,16.19s-9.26,9.26-14.83,12.84c-1.53.99-3.13,1.87-4.7,2.79-1.66.98-3.47,1.7-4.47,3.44-.37.65-.01,1.39.66,1.62h0Z"/>
          <path class="cls-2" d="m869.9,647.58c3.91,6.71,7.08,13.64,8.96,21.2s2.48,15.48,2.24,23.29c-.24,7.95-1.37,15.83-2.98,23.61-1.78,8.58-4.12,17.16-7.94,25.08-3.48,7.21-8.15,13.65-13.96,19.15-5.46,5.17-11.71,9.41-18.31,12.99-14.1,7.65-29.64,12.25-45.09,16.3-9.47,2.48-19.01,4.74-28.6,6.71s-19.27,3.39-28.85,5.37c-2.36.49-4.72,1.01-7.08,1.49-2.03.41-1.59,3.76.49,3.64,20.05-1.14,39.95-5.42,59.39-10.3,16.53-4.15,33.2-8.94,48.49-16.62,14.27-7.16,27.26-17.34,35.3-31.36,4.55-7.93,7.51-16.7,9.62-25.56,1.96-8.25,3.32-16.66,3.81-25.13.91-15.67-.94-33.23-10.86-46.04-1.21-1.57-2.5-2.99-3.97-4.32-.35-.32-.91.08-.66.51h0Z"/>
          <path class="cls-2" d="m857.81,631.23l.19.21c.22.24.48.41.79.51.29.15.61.22.94.21l.65-.09c.41-.12.77-.33,1.08-.63l.19-.21.42-.55.27-.65c.11-.36.13-.72.05-1.08,0-.24-.06-.47-.19-.68-.06-.23-.18-.43-.35-.6-.12-.2-.28-.37-.49-.49-.17-.17-.37-.28-.6-.35-.32-.17-.67-.25-1.04-.23l-.72.1-.65.27-.55.42-.42.55-.27.65c-.11.36-.13.72-.05,1.08,0,.24.06.47.19.68.11.34.3.63.56.87h0Z"/>
          <path class="cls-2" d="m164.79,633.11c.38-.14.79-.26,1.07-.58.06-.06.11-.13.16-.2l.31-.39c.1-.09.17-.2.21-.32.06-.12.09-.25.09-.39l-.04-.27c-.05-.17-.13-.32-.26-.44l-.31-.39c-.05-.06-.1-.13-.15-.19-.28-.32-.69-.44-1.08-.59-.34-.09-.69-.09-1.03,0-.33.09-.62.26-.86.5l-.3.39c-.18.3-.26.63-.27.98-.01.27.05.52.17.75.08.24.21.45.4.63.24.24.53.41.86.5.34.09.69.09,1.03,0h0Z"/>
        </g>
      </g>
      <g>
        <g>
          <path class="cls-1" d="m822.17,95.04s0,0,0,.01c.15,0,.15-.02,0-.03,0,0,0,0,0,.01Z"/>
          <path class="cls-1" d="m802.38,95.04s0,0,0-.01c-.14,0-.14.02,0,.03,0,0,0,0,0-.01Z"/>
          <path class="cls-1" d="m822.17,95.02c-5.32-.28-9.6-5.56-9.88-12.16-.28,6.61-4.57,11.9-9.91,12.16,0,0,0,0,0,.01s0,0,0,.01c5.33.26,9.63,5.55,9.91,12.16.28-6.6,4.56-11.88,9.88-12.16,0,0,0,0,0-.01s0,0,0-.01Z"/>
        </g>
        <g>
          <path class="cls-1" d="m542.76,546.08s0,0,0,.01c.15,0,.15-.02,0-.03,0,0,0,0,0,.01Z"/>
          <path class="cls-1" d="m522.97,546.08s0,0,0-.01c-.14,0-.14.02,0,.03,0,0,0,0,0-.01Z"/>
          <path class="cls-1" d="m542.76,546.07c-5.32-.28-9.6-5.56-9.88-12.16-.28,6.61-4.57,11.9-9.91,12.16,0,0,0,0,0,.01s0,0,0,.01c5.33.26,9.63,5.55,9.91,12.16.28-6.6,4.56-11.88,9.88-12.16,0,0,0,0,0-.01s0,0,0-.01Z"/>
        </g>
        <g>
          <path class="cls-1" d="m977.33,304.12s0,0,0,.01c.15,0,.15-.02,0-.03,0,0,0,0,0,.01Z"/>
          <path class="cls-1" d="m957.55,304.12s0,0,0-.01c-.14,0-.14.02,0,.03,0,0,0,0,0-.01Z"/>
          <path class="cls-1" d="m977.33,304.1c-5.32-.28-9.6-5.56-9.88-12.16-.28,6.61-4.57,11.9-9.91,12.16,0,0,0,0,0,.01s0,0,0,.01c5.33.26,9.63,5.55,9.91,12.16.28-6.6,4.56-11.88,9.88-12.16,0,0,0,0,0-.01s0,0,0-.01Z"/>
        </g>
        <g>
          <path class="cls-1" d="m722.65,628.55s0,0,0,.01c.15,0,.15-.02,0-.03,0,0,0,0,0,.01Z"/>
          <path class="cls-1" d="m702.87,628.55s0,0,0-.01c-.14,0-.14.02,0,.03,0,0,0,0,0-.01Z"/>
          <path class="cls-1" d="m722.65,628.53c-5.32-.28-9.6-5.56-9.88-12.16-.28,6.61-4.57,11.9-9.91,12.16,0,0,0,0,0,.01s0,0,0,.01c5.33.26,9.63,5.55,9.91,12.16.28-6.6,4.56-11.88,9.88-12.16,0,0,0,0,0-.01s0,0,0-.01Z"/>
        </g>
        <g>
          <path class="cls-1" d="m202.22,537.74s0,0,0,.01c.15,0,.15-.02,0-.03,0,0,0,0,0,.01Z"/>
          <path class="cls-1" d="m182.44,537.74s0,0,0-.01c-.14,0-.14.02,0,.03,0,0,0,0,0-.01Z"/>
          <path class="cls-1" d="m202.22,537.73c-5.32-.28-9.6-5.56-9.88-12.16-.28,6.61-4.57,11.9-9.91,12.16,0,0,0,0,0,.01s0,0,0,.01c5.33.26,9.63,5.55,9.91,12.16.28-6.6,4.56-11.88,9.88-12.16,0,0,0,0,0-.01s0,0,0-.01Z"/>
        </g>
        <g>
          <path class="cls-1" d="m540.32,42.3s0,0,0,.01c.15,0,.15-.02,0-.03,0,0,0,0,0,.01Z"/>
          <path class="cls-1" d="m520.53,42.3s0,0,0-.01c-.14,0-.14.02,0,.03,0,0,0,0,0-.01Z"/>
          <path class="cls-1" d="m540.32,42.29c-5.32-.28-9.6-5.56-9.88-12.16-.28,6.61-4.57,11.9-9.91,12.16,0,0,0,0,0,.01s0,0,0,.01c5.33.26,9.63,5.55,9.91,12.16.28-6.6,4.56-11.88,9.88-12.16,0,0,0,0,0-.01s0,0,0-.01Z"/>
        </g>
        <g>
          <path class="cls-1" d="m791.61,282.19s0,0,0,.01c.15,0,.15-.02,0-.03,0,0,0,0,0,.01Z"/>
          <path class="cls-1" d="m771.83,282.19s0,0,0-.01c-.14,0-.14.02,0,.03,0,0,0,0,0-.01Z"/>
          <path class="cls-1" d="m791.61,282.18c-5.32-.28-9.6-5.56-9.88-12.16-.28,6.61-4.57,11.9-9.91,12.16,0,0,0,0,0,.01s0,0,0,.01c5.33.26,9.63,5.55,9.91,12.16.28-6.6,4.56-11.88,9.88-12.16,0,0,0,0,0-.01s0,0,0-.01Z"/>
        </g>
        <g>
          <path class="cls-1" d="m315.14,441.55s0,0,0,.01c.15,0,.15-.02,0-.03,0,0,0,0,0,.01Z"/>
          <path class="cls-1" d="m295.36,441.55s0,0,0-.01c-.14,0-.14.02,0,.03,0,0,0,0,0-.01Z"/>
          <path class="cls-1" d="m315.14,441.54c-5.32-.28-9.6-5.56-9.88-12.16-.28,6.61-4.57,11.9-9.91,12.16,0,0,0,0,0,.01s0,0,0,.01c5.33.26,9.63,5.55,9.91,12.16.28-6.6,4.56-11.88,9.88-12.16,0,0,0,0,0-.01s0,0,0-.01Z"/>
        </g>
        <g>
          <path class="cls-1" d="m143.38,405.47s0,0,0,.01c.15,0,.15-.02,0-.03,0,0,0,0,0,.01Z"/>
          <path class="cls-1" d="m123.6,405.47s0,0,0-.01c-.14,0-.14.02,0,.03,0,0,0,0,0-.01Z"/>
          <path class="cls-1" d="m143.38,405.46c-5.32-.28-9.6-5.56-9.88-12.16-.28,6.61-4.57,11.9-9.91,12.16,0,0,0,0,0,.01s0,0,0,.01c5.33.26,9.63,5.55,9.91,12.16.28-6.6,4.56-11.88,9.88-12.16,0,0,0,0,0-.01s0,0,0-.01Z"/>
        </g>
        <g>
          <path class="cls-1" d="m276.35,42.29s0,0,0,.01c.15,0,.15-.02,0-.03,0,0,0,0,0,.01Z"/>
          <path class="cls-1" d="m256.56,42.29s0,0,0-.01c-.14,0-.14.02,0,.03,0,0,0,0,0-.01Z"/>
          <path class="cls-1" d="m276.35,42.28c-5.32-.28-9.6-5.56-9.88-12.16-.28,6.61-4.57,11.9-9.91,12.16,0,0,0,0,0,.01s0,0,0,.01c5.33.26,9.63,5.55,9.91,12.16.28-6.6,4.56-11.88,9.88-12.16,0,0,0,0,0-.01s0,0,0-.01Z"/>
        </g>
        <g>
          <path class="cls-1" d="m76.44,291.94s0,0,0,.01c.15,0,.15-.02,0-.03,0,0,0,0,0,.01Z"/>
          <path class="cls-1" d="m56.66,291.94s0,0,0-.01c-.14,0-.14.02,0,.03,0,0,0,0,0-.01Z"/>
          <path class="cls-1" d="m76.44,291.93c-5.32-.28-9.6-5.56-9.88-12.16-.28,6.61-4.57,11.9-9.91,12.16,0,0,0,0,0,.01s0,0,0,.01c5.33.26,9.63,5.55,9.91,12.16.28-6.6,4.56-11.88,9.88-12.16,0,0,0,0,0-.01s0,0,0-.01Z"/>
        </g>
        <g>
          <path class="cls-1" d="m791.61,712.23s0,0,0,.01c.15,0,.15-.02,0-.03,0,0,0,0,0,.01Z"/>
          <path class="cls-1" d="m771.83,712.23s0,0,0-.01c-.14,0-.14.02,0,.03,0,0,0,0,0-.01Z"/>
          <path class="cls-1" d="m791.61,712.22c-5.32-.28-9.6-5.56-9.88-12.16-.28,6.61-4.57,11.9-9.91,12.16,0,0,0,0,0,.01s0,0,0,.01c5.33.26,9.63,5.55,9.91,12.16.28-6.6,4.56-11.88,9.88-12.16,0,0,0,0,0-.01s0,0,0-.01Z"/>
        </g>
        <g>
          <path class="cls-1" d="m888.76,421.93s0,0,0,.01c.15,0,.15-.02,0-.03,0,0,0,0,0,.01Z"/>
          <path class="cls-1" d="m868.97,421.93s0,0,0-.01c-.14,0-.14.02,0,.03,0,0,0,0,0-.01Z"/>
          <path class="cls-1" d="m888.75,421.92c-5.32-.28-9.6-5.56-9.88-12.16-.28,6.61-4.57,11.9-9.91,12.16,0,0,0,0,0,.01s0,0,0,.01c5.33.26,9.63,5.55,9.91,12.16.28-6.6,4.56-11.88,9.88-12.16,0,0,0,0,0-.01s0,0,0-.01Z"/>
        </g>
        <g>
          <path class="cls-1" d="m153.32,82.85s0,0,0,.01c.15,0,.15-.02,0-.03,0,0,0,0,0,.01Z"/>
          <path class="cls-1" d="m133.54,82.85s0,0,0-.01c-.14,0-.14.02,0,.03,0,0,0,0,0-.01Z"/>
          <path class="cls-1" d="m153.32,82.84c-5.32-.28-9.6-5.56-9.88-12.16-.28,6.61-4.57,11.9-9.91,12.16,0,0,0,0,0,.01s0,0,0,.01c5.33.26,9.63,5.55,9.91,12.16.28-6.6,4.56-11.88,9.88-12.16,0,0,0,0,0-.01s0,0,0-.01Z"/>
        </g>
        <g>
          <path class="cls-1" d="m342.91,562.59s0,0,0,.01c.15,0,.15-.02,0-.03,0,0,0,0,0,.01Z"/>
          <path class="cls-1" d="m323.13,562.59s0,0,0-.01c-.14,0-.14.02,0,.03,0,0,0,0,0-.01Z"/>
          <path class="cls-1" d="m342.91,562.58c-5.32-.28-9.6-5.56-9.88-12.16-.28,6.61-4.57,11.9-9.91,12.16,0,0,0,0,0,.01s0,0,0,.01c5.33.26,9.63,5.55,9.91,12.16.28-6.6,4.56-11.88,9.88-12.16,0,0,0,0,0-.01s0,0,0-.01Z"/>
        </g>
        <g>
          <path class="cls-1" d="m738.81,461.57s0,0,0,.01c.15,0,.15-.02,0-.03,0,0,0,0,0,.01Z"/>
          <path class="cls-1" d="m719.02,461.57s0,0,0-.01c-.14,0-.14.02,0,.03,0,0,0,0,0-.01Z"/>
          <path class="cls-1" d="m738.81,461.56c-5.32-.28-9.6-5.56-9.88-12.16-.28,6.61-4.57,11.9-9.91,12.16,0,0,0,0,0,.01s0,0,0,.01c5.33.26,9.63,5.55,9.91,12.16.28-6.6,4.56-11.88,9.88-12.16,0,0,0,0,0-.01s0,0,0-.01Z"/>
        </g>
        <g>
          <path class="cls-1" d="m878.87,204.45s0,0,0,.01c.15,0,.15-.02,0-.03,0,0,0,0,0,.01Z"/>
          <path class="cls-1" d="m859.08,204.45s0,0,0-.01c-.14,0-.14.02,0,.03,0,0,0,0,0-.01Z"/>
          <path class="cls-1" d="m878.87,204.44c-5.32-.28-9.6-5.56-9.88-12.16-.28,6.61-4.57,11.9-9.91,12.16,0,0,0,0,0,.01s0,0,0,.01c5.33.26,9.63,5.55,9.91,12.16.28-6.6,4.56-11.88,9.88-12.16,0,0,0,0,0-.01s0,0,0-.01Z"/>
        </g>
        <g>
          <path class="cls-1" d="m586.54,257.28s0,0,0,.01c.15,0,.15-.02,0-.03,0,0,0,0,0,.01Z"/>
          <path class="cls-1" d="m566.76,257.28s0,0,0-.01c-.14,0-.14.02,0,.03,0,0,0,0,0-.01Z"/>
          <path class="cls-1" d="m586.54,257.26c-5.32-.28-9.6-5.56-9.88-12.16-.28,6.61-4.57,11.9-9.91,12.16,0,0,0,0,0,.01s0,0,0,.01c5.33.26,9.63,5.55,9.91,12.16.28-6.6,4.56-11.88,9.88-12.16,0,0,0,0,0-.01s0,0,0-.01Z"/>
        </g>
        <g>
          <path class="cls-1" d="m171.11,207.85s0,0,0,.01c.15,0,.15-.02,0-.03,0,0,0,0,0,.01Z"/>
          <path class="cls-1" d="m151.32,207.85s0,0,0-.01c-.14,0-.14.02,0,.03,0,0,0,0,0-.01Z"/>
          <path class="cls-1" d="m171.11,207.84c-5.32-.28-9.6-5.56-9.88-12.16-.28,6.61-4.57,11.9-9.91,12.16,0,0,0,0,0,.01s0,0,0,.01c5.33.26,9.63,5.55,9.91,12.16.28-6.6,4.56-11.88,9.88-12.16,0,0,0,0,0-.01s0,0,0-.01Z"/>
        </g>
        <path class="cls-1" d="m308.69,344.52c0,1.26-1.02,2.27-2.28,2.27s-2.27-1.02-2.27-2.27,1.02-2.28,2.27-2.28,2.28,1.02,2.28,2.28Z"/>
        <path class="cls-1" d="m665.11,245.1c0,1.26-1.02,2.27-2.28,2.27s-2.28-1.02-2.28-2.27,1.02-2.28,2.28-2.28,2.28,1.02,2.28,2.28Z"/>
        <path class="cls-1" d="m806.47,204.46c0,1.26-1.02,2.27-2.28,2.27s-2.27-1.02-2.27-2.27,1.02-2.28,2.27-2.28,2.28,1.02,2.28,2.28Z"/>
        <path class="cls-1" d="m213.34,299.57c0,1.26-1.02,2.28-2.28,2.28s-2.27-1.02-2.27-2.28,1.02-2.27,2.27-2.27,2.28,1.02,2.28,2.27Z"/>
        <path class="cls-1" d="m103.02,150.02c0,1.26-1.02,2.27-2.27,2.27s-2.28-1.02-2.28-2.27,1.02-2.28,2.28-2.28,2.27,1.02,2.27,2.28Z"/>
        <path class="cls-1" d="m145.71,313.02c0,1.26-1.02,2.27-2.27,2.27s-2.28-1.02-2.28-2.27,1.02-2.27,2.28-2.27,2.27,1.02,2.27,2.27Z"/>
        <path class="cls-1" d="m893.59,121.97c0,1.26-1.02,2.27-2.27,2.27s-2.28-1.02-2.28-2.27,1.02-2.28,2.28-2.28,2.27,1.02,2.27,2.28Z"/>
        <path class="cls-1" d="m211.06,115.23c0,1.26-1.02,2.27-2.27,2.27s-2.28-1.02-2.28-2.27,1.02-2.28,2.28-2.28,2.27,1.02,2.27,2.28Z"/>
        <path class="cls-1" d="m76.09,47.57c0,1.26-1.02,2.28-2.28,2.28s-2.27-1.02-2.27-2.28,1.02-2.27,2.27-2.27,2.28,1.02,2.28,2.27Z"/>
        <path class="cls-1" d="m979.11,40.01c0,1.26-1.02,2.28-2.27,2.28s-2.28-1.02-2.28-2.28,1.02-2.27,2.28-2.27,2.27,1.02,2.27,2.27Z"/>
        <path class="cls-1" d="m862,301.84c0,1.26-1.02,2.27-2.27,2.27s-2.28-1.02-2.28-2.27,1.02-2.28,2.28-2.28,2.27,1.02,2.27,2.28Z"/>
        <path class="cls-1" d="m477.76,346.31c0,1.26-1.02,2.27-2.28,2.27s-2.27-1.02-2.27-2.27,1.02-2.28,2.27-2.28,2.28,1.02,2.28,2.28Z"/>
        <path class="cls-1" d="m720.25,346.8c0,1.26-1.02,2.28-2.27,2.28s-2.28-1.02-2.28-2.28,1.02-2.27,2.28-2.27,2.27,1.02,2.27,2.27Z"/>
        <path class="cls-1" d="m971.99,216.62c0,1.26-1.02,2.27-2.27,2.27s-2.28-1.02-2.28-2.27,1.02-2.28,2.28-2.28,2.27,1.02,2.27,2.28Z"/>
        <path class="cls-1" d="m918.39,266.08c0,1.26-1.02,2.27-2.27,2.27s-2.28-1.02-2.28-2.27,1.02-2.28,2.28-2.28,2.27,1.02,2.27,2.28Z"/>
        <path class="cls-1" d="m737.96,49.85c0,1.26-1.02,2.27-2.28,2.27s-2.27-1.02-2.27-2.27,1.02-2.28,2.27-2.28,2.28,1.02,2.28,2.28Z"/>
        <path class="cls-1" d="m418.95,498.23c0,1.26-1.02,2.28-2.27,2.28s-2.28-1.02-2.28-2.28,1.02-2.27,2.28-2.27,2.27,1.02,2.27,2.27Z"/>
        <g>
          <path class="cls-1" d="m664.01,734.95s0,0,0,.01c.15,0,.15-.02,0-.03,0,0,0,0,0,.01Z"/>
          <path class="cls-1" d="m644.23,734.95s0,0,0-.01c-.14,0-.14.02,0,.03,0,0,0,0,0-.01Z"/>
          <path class="cls-1" d="m664.01,734.94c-5.32-.28-9.6-5.56-9.88-12.16-.28,6.61-4.57,11.9-9.91,12.16,0,0,0,0,0,.01s0,0,0,.01c5.33.26,9.63,5.55,9.91,12.16.28-6.6,4.56-11.88,9.88-12.16,0,0,0,0,0-.01s0,0,0-.01Z"/>
        </g>
        <g>
          <path class="cls-1" d="m464.17,751.46s0,0,0,.01c.15,0,.15-.02,0-.03,0,0,0,0,0,.01Z"/>
          <path class="cls-1" d="m444.38,751.46s0,0,0-.01c-.14,0-.14.02,0,.03,0,0,0,0,0-.01Z"/>
          <path class="cls-1" d="m464.17,751.45c-5.32-.28-9.6-5.56-9.88-12.16-.28,6.61-4.57,11.9-9.91,12.16,0,0,0,0,0,.01s0,0,0,.01c5.33.26,9.63,5.55,9.91,12.16.28-6.6,4.56-11.88,9.88-12.16,0,0,0,0,0-.01s0,0,0-.01Z"/>
        </g>
        <path class="cls-1" d="m540.2,687.1c0,1.26-1.02,2.28-2.27,2.28s-2.28-1.02-2.28-2.28,1.02-2.27,2.28-2.27,2.27,1.02,2.27,2.27Z"/>
        <path class="cls-1" d="m389.1,56.75c0,1.26-1.02,2.28-2.28,2.28s-2.28-1.02-2.28-2.28,1.02-2.27,2.28-2.27,2.28,1.02,2.28,2.27Z"/>
        <path class="cls-1" d="m637.07,574.77c0,1.26-1.02,2.27-2.27,2.27s-2.27-1.02-2.27-2.27,1.02-2.28,2.27-2.28,2.27,1.02,2.27,2.28Z"/>
        <path class="cls-1" d="m715.04,525.57c0,1.26-1.02,2.28-2.27,2.28s-2.28-1.02-2.28-2.28,1.02-2.27,2.28-2.27,2.27,1.02,2.27,2.27Z"/>
        <path class="cls-1" d="m461.01,242.83c0,1.26-1.02,2.28-2.27,2.28s-2.28-1.02-2.28-2.28,1.02-2.27,2.28-2.27,2.27,1.02,2.27,2.27Z"/>
        <path class="cls-1" d="m236.03,662.17c0,1.26-1.02,2.28-2.28,2.28s-2.27-1.02-2.27-2.28,1.02-2.27,2.27-2.27,2.28,1.02,2.28,2.27Z"/>
        <path class="cls-1" d="m317.42,709.98c0,1.26-1.02,2.28-2.27,2.28s-2.28-1.02-2.28-2.28,1.02-2.27,2.28-2.27,2.27,1.02,2.27,2.27Z"/>
        <path class="cls-1" d="m250.55,449.4c0,1.26-1.02,2.28-2.27,2.28s-2.28-1.02-2.28-2.28,1.02-2.27,2.28-2.27,2.27,1.02,2.27,2.27Z"/>
        <path class="cls-1" d="m135.77,438.95c0,1.26-1.02,2.27-2.28,2.27s-2.27-1.02-2.27-2.27,1.02-2.28,2.27-2.28,2.28,1.02,2.28,2.28Z"/>
        <path class="cls-1" d="m800.61,597.35c0,1.26-1.02,2.27-2.28,2.27s-2.27-1.02-2.27-2.27,1.02-2.28,2.27-2.28,2.28,1.02,2.28,2.28Z"/>
        <path class="cls-1" d="m808.75,675.74c0,1.26-1.02,2.28-2.27,2.28s-2.28-1.02-2.28-2.28,1.02-2.27,2.28-2.27,2.27,1.02,2.27,2.27Z"/>
        <path class="cls-1" d="m721.19,740.42c0,1.26-1.02,2.27-2.28,2.27s-2.27-1.02-2.27-2.27,1.02-2.28,2.27-2.28,2.28,1.02,2.28,2.28Z"/>
        <path class="cls-1" d="m219.04,599.63c0,1.26-1.02,2.27-2.28,2.27s-2.27-1.02-2.27-2.27,1.02-2.27,2.27-2.27,2.28,1.02,2.28,2.27Z"/>
        <path class="cls-1" d="m336.55,259.55c0,1.26-1.02,2.27-2.27,2.27s-2.28-1.02-2.28-2.27,1.02-2.27,2.28-2.27,2.27,1.02,2.27,2.27Z"/>
        <path class="cls-1" d="m233.76,531.62c0,1.26-1.02,2.27-2.27,2.27s-2.28-1.02-2.28-2.27,1.02-2.27,2.28-2.27,2.27,1.02,2.27,2.27Z"/>
        <path class="cls-1" d="m781.73,397.23c0,1.26-1.02,2.28-2.27,2.28s-2.27-1.02-2.27-2.28,1.02-2.27,2.27-2.27,2.27,1.02,2.27,2.27Z"/>
        <path class="cls-1" d="m818.93,518.18c0,1.26-1.02,2.27-2.28,2.27s-2.27-1.02-2.27-2.27,1.02-2.28,2.27-2.28,2.28,1.02,2.28,2.28Z"/>
        <path class="cls-1" d="m905.97,399.51c0,1.26-1.02,2.27-2.27,2.27s-2.28-1.02-2.28-2.27,1.02-2.28,2.28-2.28,2.27,1.02,2.27,2.28Z"/>
        <path class="cls-1" d="m49.41,218.9c0,1.26-1.02,2.27-2.27,2.27s-2.28-1.02-2.28-2.27,1.02-2.27,2.28-2.27,2.27,1.02,2.27,2.27Z"/>
      </g>
    </g>
  </g>
</svg>